<svg xmlns="http://www.w3.org/2000/svg" width="112" height="34" viewBox="0 0 112 34"><g><g><g><path fill="#97a4b0" d="M41.384 2.077C40.417.737 38.834.14 37.39.14c-2.037 0-3.935 1.044-4.773 3.282C31.65 1.187 30.297.14 28.137.14c-2.127 0-3.704 1.044-4.548 3.282h-.058V1.107a.646.646 0 0 0-.626-.592h-3.219c-.367 0-.666.283-.666.637V18.87a.646.646 0 0 0 .618.584h3.455a.652.652 0 0 0 .663-.64V9.42c0-2.048-.1-4.884 2.379-4.884 2.452 0 2.132 2.907 2.132 4.884v9.393c0 .34.275.613.624.64h3.446a.651.651 0 0 0 .666-.64V9.419c0-1.007-.031-2.503.32-3.396.354-.893 1.23-1.45 2.064-1.45 1.002 0 1.774.335 2.03 1.524.164.71.098 2.574.098 3.322v9.393c0 .34.277.613.62.64h3.45a.652.652 0 0 0 .663-.64l.005-11.18c0-1.9.222-4.064-.87-5.555z"/></g><g><path fill="#97a4b0" d="M86.885 16.169c-2.707 0-2.678-4.622-2.678-6.787 0-2.16.164-5.627 2.704-5.627 1.094 0 1.874.481 2.257 1.716.455 1.416.518 3.203.518 4.699.01 2.272-.119 5.999-2.801 5.999zm0-16.029c-4.995 0-7.765 4.29-7.765 9.802 0 5.482 2.735 9.88 7.765 9.88 4.83 0 7.894-4.287 7.894-9.692.013-5.592-2.767-9.99-7.894-9.99z"/></g><g><path fill="#97a4b0" d="M55.43 10.992c0 1.344.037 2.463-.648 3.656-.544.972-1.419 1.566-2.381 1.566-1.33 0-2.106-1.006-2.106-2.497 0-2.938 2.637-3.472 5.135-3.472zm6.147 5.216c-.629-.878-1.295-1.586-1.295-3.2V7.625c0-2.275.156-4.368-1.522-5.938C57.436.417 55.24-.03 53.56-.03c-3.282 0-6.953 1.224-7.72 5.283-.082.433.23.66.513.724l3.346.36c.312-.014.542-.32.603-.632.282-1.398 1.458-2.072 2.775-2.072.71 0 1.517.262 1.931.899.49.708.423 1.68.423 2.5l-.002.438c-2 .23-4.617.376-6.491 1.2-2.165.933-3.679 2.841-3.679 5.643 0 3.586 2.257 5.38 5.161 5.38 2.453 0 3.8-.578 5.693-2.51.624.91.833 1.353 1.98 2.304a.728.728 0 0 0 .819-.079l.005.005c.69-.607 1.94-1.704 2.643-2.29.278-.23.238-.606.016-.915z"/></g><g><path fill="#97a4b0" d="M110.65 2.23c-.97-1.527-2.49-2.087-4.035-2.09-2.381 0-3.743 1.155-4.705 3.578h-.055V1.01a.662.662 0 0 0-.618-.497h-3.201a.655.655 0 0 0-.666.578l.005 17.723c0 .341.273.619.624.645h3.433a.665.665 0 0 0 .677-.645V9.28c0-1.197.06-2.273.552-3.356.383-.854 1.152-1.417 1.998-1.417 2.379 0 2.151 2.836 2.151 4.773v9.623c.027.298.299.53.608.56h3.465a.674.674 0 0 0 .671-.56V7.749c0-1.715 0-4.097-.904-5.519z"/></g><g><path fill="#97a4b0" d="M76.859 14.657c-1.982-1.115-4.284-1.443-6.473-1.388l5.889-8.393c.541-.756.85-1.23.85-1.594v-2.17c0-.38-.287-.642-.655-.642H65.124a.621.621 0 0 0-.64.642v2.535c0 .378.286.637.656.637h5.93l-6.812 9.768c-.413.626-.418 1.329-.418 1.741v2.572c0 .37.42.795.811.579 3.862-2.049 8.492-1.845 11.98-.016.434.222.836-.212.836-.582V15.64c-.04-.362-.159-.735-.608-.983z"/></g><g><path fill="#97a4b0" d="M74.666 21.068c-.705-.875-6.784-1.628-10.492.975-.565.4-.473.952.164.878 2.085-.246 6.737-.804 7.561.253.827 1.06-.922 5.437-1.707 7.387-.24.592.272.83.806.386 3.486-2.902 4.38-8.996 3.668-9.879z"/></g><g><path fill="#97a4b0" d="M68.266 24.735c-7.263 3.084-15.162 4.57-22.35 4.57-10.644 0-20.959-2.916-29.292-7.768-.726-.428-1.268.32-.663.867 7.725 6.98 17.934 11.176 29.275 11.176 8.092 0 17.482-2.545 23.968-7.323 1.07-.793.159-1.982-.938-1.522z"/></g><g><path fill="#97a4b0" d="M10.162 10.988c0 1.345.037 2.466-.643 3.66-.546.973-1.414 1.568-2.385 1.568-1.321 0-2.089-1.007-2.089-2.5 0-2.942 2.63-3.476 5.117-3.476zm6.158 5.22c-.632-.878-1.3-1.586-1.3-3.2V7.625c0-2.275.16-4.368-1.518-5.938C12.176.417 9.982-.03 8.3-.03c-3.283 0-6.946 1.224-7.72 5.283-.08.433.238.66.512.724l3.357.36c.306-.014.536-.32.597-.632.283-1.398 1.462-2.072 2.778-2.072.708 0 1.512.262 1.934.899.481.708.415 1.68.415 2.5v.444c-1.998.232-4.614.378-6.49 1.202C1.524 9.606 0 11.514 0 14.315c0 3.587 2.262 5.381 5.167 5.381 2.458 0 3.8-.579 5.692-2.51.627.909.833 1.353 1.98 2.304a.725.725 0 0 0 .817-.08l.01.006c.687-.608 1.937-1.705 2.646-2.291.28-.238.232-.608.008-.917z"/></g></g></g></svg>