<svg xmlns="http://www.w3.org/2000/svg" width="25" height="24" viewBox="0 0 25 24"><g><g><g><path fill="#51545e" d="M15.333 11.997a2.667 2.667 0 1 1-5.333 0 2.667 2.667 0 0 1 5.333 0z"/></g><g><path fill="#51545e" d="M16.41 9.11a.845.845 0 0 1-.842-.848c0-.468.377-.847.842-.847.465 0 .842.38.842.847a.845.845 0 0 1-.842.847zm-3.746 6.497a3.604 3.604 0 1 1 0-7.207 3.604 3.604 0 0 1 0 7.207zm4.945-8.55a2.173 2.173 0 0 0-.807-.524c-.247-.097-.618-.21-1.303-.242-.74-.034-.962-.041-2.835-.041-1.875 0-2.096.007-2.836.04-.685.032-1.056.146-1.303.243-.305.112-.581.291-.807.524a2.176 2.176 0 0 0-.525.807c-.097.248-.21.62-.242 1.304-.034.74-.041.962-.041 2.836 0 1.873.007 2.095.041 2.835.031.685.145 1.056.242 1.303.112.305.291.581.524.807.227.233.503.413.807.525.248.097.62.21 1.304.242.74.034.961.04 2.835.04 1.875 0 2.096-.006 2.836-.04.684-.031 1.056-.145 1.303-.242a2.324 2.324 0 0 0 1.332-1.332c.096-.247.21-.618.242-1.303.034-.74.04-.962.04-2.835 0-1.874-.006-2.096-.04-2.836-.031-.685-.145-1.056-.242-1.304a2.174 2.174 0 0 0-.525-.807z"/></g><g><path fill="#51545e" d="M19.199 16.514a3.523 3.523 0 0 1-2.015 2.015c-.439.17-.94.287-1.673.32-.735.034-.97.042-2.84.042-1.872 0-2.107-.008-2.842-.042-.733-.033-1.234-.15-1.672-.32a3.376 3.376 0 0 1-1.22-.795 3.377 3.377 0 0 1-.796-1.22c-.17-.439-.287-.94-.32-1.673-.034-.735-.042-.97-.042-2.841 0-1.871.008-2.106.042-2.84.033-.734.15-1.235.32-1.674.173-.46.444-.876.795-1.22.344-.35.76-.622 1.22-.795.439-.17.94-.287 1.673-.32.735-.034.97-.042 2.841-.042 1.871 0 2.106.008 2.84.042.734.033 1.235.15 1.674.32.46.173.876.444 1.22.795.35.344.622.76.795 1.22.17.439.287.94.32 1.673.034.735.042.97.042 2.841 0 1.871-.008 2.106-.042 2.84-.033.734-.15 1.235-.32 1.674zM12.67 0c-6.626 0-12 5.374-12 12s5.374 12 12 12 12-5.374 12-12-5.374-12-12-12z"/></g></g></g></svg>