<svg xmlns="http://www.w3.org/2000/svg" width="158" height="73" viewBox="0 0 158 73"><g><g><g><g><path fill="#0069a3" d="M4.774 2.393a2.39 2.39 0 0 1-2.388 2.394A2.39 2.39 0 0 1 0 2.393 2.39 2.39 0 0 1 2.386 0a2.39 2.39 0 0 1 2.388 2.393"/></g><g><path fill="#0069a3" d="M19.094 2.393a2.39 2.39 0 0 1-2.387 2.394 2.39 2.39 0 0 1-2.387-2.394A2.39 2.39 0 0 1 16.707 0a2.39 2.39 0 0 1 2.387 2.393"/></g><g><path fill="#0069a3" d="M32.224 2.393a2.39 2.39 0 0 1-2.387 2.394 2.39 2.39 0 0 1-2.387-2.394A2.39 2.39 0 0 1 29.837 0a2.39 2.39 0 0 1 2.387 2.393"/></g><g><path fill="#0069a3" d="M46.544 2.393a2.39 2.39 0 0 1-2.388 2.394 2.39 2.39 0 0 1-2.386-2.394A2.39 2.39 0 0 1 44.156 0a2.39 2.39 0 0 1 2.388 2.393"/></g><g><path fill="#0069a3" d="M59.674 2.393a2.39 2.39 0 0 1-2.387 2.394A2.39 2.39 0 0 1 54.9 2.393 2.39 2.39 0 0 1 57.287 0a2.39 2.39 0 0 1 2.387 2.393"/></g><g><path fill="#0069a3" d="M4.774 15.553a2.39 2.39 0 0 1-2.388 2.394A2.39 2.39 0 0 1 0 15.553a2.39 2.39 0 0 1 2.386-2.393 2.39 2.39 0 0 1 2.388 2.393"/></g><g><path fill="#0069a3" d="M19.094 15.553a2.39 2.39 0 0 1-2.387 2.394 2.39 2.39 0 0 1-2.387-2.394 2.39 2.39 0 0 1 2.387-2.393 2.39 2.39 0 0 1 2.387 2.393"/></g><g><path fill="#0069a3" d="M32.224 15.553a2.39 2.39 0 0 1-2.387 2.394 2.39 2.39 0 0 1-2.387-2.394 2.39 2.39 0 0 1 2.387-2.393 2.39 2.39 0 0 1 2.387 2.393"/></g><g><path fill="#0069a3" d="M46.544 15.553a2.39 2.39 0 0 1-2.388 2.394 2.39 2.39 0 0 1-2.386-2.394 2.39 2.39 0 0 1 2.386-2.393 2.39 2.39 0 0 1 2.388 2.393"/></g><g><path fill="#0069a3" d="M59.674 15.553a2.39 2.39 0 0 1-2.387 2.394 2.39 2.39 0 0 1-2.387-2.394 2.39 2.39 0 0 1 2.387-2.393 2.39 2.39 0 0 1 2.387 2.393"/></g><g><path fill="#0069a3" d="M4.774 30.512c0 1.652-1.068 2.992-2.388 2.992C1.07 33.504 0 32.164 0 30.512s1.069-2.992 2.386-2.992c1.32 0 2.388 1.34 2.388 2.992"/></g><g><path fill="#0069a3" d="M19.094 30.512c0 1.652-1.068 2.992-2.387 2.992-1.318 0-2.387-1.34-2.387-2.992s1.069-2.992 2.387-2.992c1.319 0 2.387 1.34 2.387 2.992"/></g><g><path fill="#0069a3" d="M32.224 30.512c0 1.652-1.069 2.992-2.387 2.992-1.319 0-2.387-1.34-2.387-2.992s1.068-2.992 2.387-2.992c1.318 0 2.387 1.34 2.387 2.992"/></g><g><path fill="#0069a3" d="M46.544 30.512c0 1.652-1.069 2.992-2.388 2.992-1.318 0-2.386-1.34-2.386-2.992s1.068-2.992 2.386-2.992c1.32 0 2.388 1.34 2.388 2.992"/></g><g><path fill="#0069a3" d="M59.674 30.512c0 1.652-1.068 2.992-2.387 2.992-1.318 0-2.387-1.34-2.387-2.992s1.069-2.992 2.387-2.992c1.32 0 2.387 1.34 2.387 2.992"/></g><g><path fill="#0069a3" d="M4.774 43.681c0 1.653-1.068 2.993-2.388 2.993C1.07 46.674 0 45.334 0 43.68c0-1.651 1.069-2.991 2.386-2.991 1.32 0 2.388 1.34 2.388 2.991"/></g><g><path fill="#0069a3" d="M19.094 43.681c0 1.653-1.068 2.993-2.387 2.993-1.318 0-2.387-1.34-2.387-2.993 0-1.651 1.069-2.991 2.387-2.991 1.319 0 2.387 1.34 2.387 2.991"/></g><g><path fill="#0069a3" d="M32.224 43.681c0 1.653-1.069 2.993-2.387 2.993-1.319 0-2.387-1.34-2.387-2.993 0-1.651 1.068-2.991 2.387-2.991 1.318 0 2.387 1.34 2.387 2.991"/></g><g><path fill="#0069a3" d="M46.544 43.681c0 1.653-1.069 2.993-2.388 2.993-1.318 0-2.386-1.34-2.386-2.993 0-1.651 1.068-2.991 2.386-2.991 1.32 0 2.388 1.34 2.388 2.991"/></g><g><path fill="#0069a3" d="M59.674 43.681c0 1.653-1.068 2.993-2.387 2.993-1.318 0-2.387-1.34-2.387-2.993 0-1.651 1.069-2.991 2.387-2.991 1.32 0 2.387 1.34 2.387 2.991"/></g><g><path fill="#0069a3" d="M4.774 57.443a2.39 2.39 0 0 1-2.388 2.394A2.39 2.39 0 0 1 0 57.443a2.39 2.39 0 0 1 2.386-2.393 2.39 2.39 0 0 1 2.388 2.393"/></g><g><path fill="#0069a3" d="M19.094 57.443a2.39 2.39 0 0 1-2.387 2.394 2.39 2.39 0 0 1-2.387-2.394 2.39 2.39 0 0 1 2.387-2.393 2.39 2.39 0 0 1 2.387 2.393"/></g><g><path fill="#0069a3" d="M32.224 57.443a2.39 2.39 0 0 1-2.387 2.394 2.39 2.39 0 0 1-2.387-2.394 2.39 2.39 0 0 1 2.387-2.393 2.39 2.39 0 0 1 2.387 2.393"/></g><g><path fill="#0069a3" d="M46.544 57.443a2.39 2.39 0 0 1-2.388 2.394 2.39 2.39 0 0 1-2.386-2.394 2.39 2.39 0 0 1 2.386-2.393 2.39 2.39 0 0 1 2.388 2.393"/></g><g><path fill="#0069a3" d="M59.674 57.443a2.39 2.39 0 0 1-2.387 2.394 2.39 2.39 0 0 1-2.387-2.394 2.39 2.39 0 0 1 2.387-2.393 2.39 2.39 0 0 1 2.387 2.393"/></g><g><path fill="#0069a3" d="M4.774 70.603a2.39 2.39 0 0 1-2.388 2.394A2.39 2.39 0 0 1 0 70.603a2.39 2.39 0 0 1 2.386-2.393 2.39 2.39 0 0 1 2.388 2.393"/></g><g><path fill="#0069a3" d="M19.094 70.603a2.39 2.39 0 0 1-2.387 2.394 2.39 2.39 0 0 1-2.387-2.394 2.39 2.39 0 0 1 2.387-2.393 2.39 2.39 0 0 1 2.387 2.393"/></g><g><path fill="#0069a3" d="M32.224 70.603a2.39 2.39 0 0 1-2.387 2.394 2.39 2.39 0 0 1-2.387-2.394 2.39 2.39 0 0 1 2.387-2.393 2.39 2.39 0 0 1 2.387 2.393"/></g><g><path fill="#0069a3" d="M46.544 70.603a2.39 2.39 0 0 1-2.388 2.394 2.39 2.39 0 0 1-2.386-2.394 2.39 2.39 0 0 1 2.386-2.393 2.39 2.39 0 0 1 2.388 2.393"/></g><g><path fill="#0069a3" d="M59.674 70.603a2.39 2.39 0 0 1-2.387 2.394 2.39 2.39 0 0 1-2.387-2.394 2.39 2.39 0 0 1 2.387-2.393 2.39 2.39 0 0 1 2.387 2.393"/></g><g><path fill="#0069a3" d="M74.004 2.393a2.39 2.39 0 0 1-2.387 2.394 2.39 2.39 0 0 1-2.387-2.394A2.39 2.39 0 0 1 71.617 0a2.39 2.39 0 0 1 2.387 2.393"/></g><g><path fill="#0069a3" d="M74.004 15.553a2.39 2.39 0 0 1-2.387 2.394 2.39 2.39 0 0 1-2.387-2.394 2.39 2.39 0 0 1 2.387-2.393 2.39 2.39 0 0 1 2.387 2.393"/></g><g><path fill="#0069a3" d="M74.004 30.512c0 1.652-1.068 2.992-2.387 2.992-1.318 0-2.387-1.34-2.387-2.992s1.069-2.992 2.387-2.992c1.32 0 2.387 1.34 2.387 2.992"/></g><g><path fill="#0069a3" d="M74.004 43.681c0 1.653-1.068 2.993-2.387 2.993-1.318 0-2.387-1.34-2.387-2.993 0-1.651 1.069-2.991 2.387-2.991 1.32 0 2.387 1.34 2.387 2.991"/></g><g><path fill="#0069a3" d="M74.004 57.443a2.39 2.39 0 0 1-2.387 2.394 2.39 2.39 0 0 1-2.387-2.394 2.39 2.39 0 0 1 2.387-2.393 2.39 2.39 0 0 1 2.387 2.393"/></g><g><path fill="#0069a3" d="M74.004 70.603a2.39 2.39 0 0 1-2.387 2.394 2.39 2.39 0 0 1-2.387-2.394 2.39 2.39 0 0 1 2.387-2.393 2.39 2.39 0 0 1 2.387 2.393"/></g></g><g><g><path fill="#0069a3" d="M88.774 2.393a2.39 2.39 0 0 1-2.388 2.394A2.39 2.39 0 0 1 84 2.393 2.39 2.39 0 0 1 86.386 0a2.39 2.39 0 0 1 2.388 2.393"/></g><g><path fill="#0069a3" d="M103.094 2.393a2.39 2.39 0 0 1-2.387 2.394 2.39 2.39 0 0 1-2.387-2.394A2.39 2.39 0 0 1 100.707 0a2.39 2.39 0 0 1 2.387 2.393"/></g><g><path fill="#0069a3" d="M116.224 2.393a2.39 2.39 0 0 1-2.387 2.394 2.39 2.39 0 0 1-2.387-2.394A2.39 2.39 0 0 1 113.837 0a2.39 2.39 0 0 1 2.387 2.393"/></g><g><path fill="#0069a3" d="M130.544 2.393a2.39 2.39 0 0 1-2.388 2.394 2.39 2.39 0 0 1-2.386-2.394A2.39 2.39 0 0 1 128.156 0a2.39 2.39 0 0 1 2.388 2.393"/></g><g><path fill="#0069a3" d="M143.674 2.393a2.39 2.39 0 0 1-2.387 2.394 2.39 2.39 0 0 1-2.387-2.394A2.39 2.39 0 0 1 141.287 0a2.39 2.39 0 0 1 2.387 2.393"/></g><g><path fill="#0069a3" d="M88.774 15.553a2.39 2.39 0 0 1-2.388 2.394A2.39 2.39 0 0 1 84 15.553a2.39 2.39 0 0 1 2.386-2.393 2.39 2.39 0 0 1 2.388 2.393"/></g><g><path fill="#0069a3" d="M103.094 15.553a2.39 2.39 0 0 1-2.387 2.394 2.39 2.39 0 0 1-2.387-2.394 2.39 2.39 0 0 1 2.387-2.393 2.39 2.39 0 0 1 2.387 2.393"/></g><g><path fill="#0069a3" d="M116.224 15.553a2.39 2.39 0 0 1-2.387 2.394 2.39 2.39 0 0 1-2.387-2.394 2.39 2.39 0 0 1 2.387-2.393 2.39 2.39 0 0 1 2.387 2.393"/></g><g><path fill="#0069a3" d="M130.544 15.553a2.39 2.39 0 0 1-2.388 2.394 2.39 2.39 0 0 1-2.386-2.394 2.39 2.39 0 0 1 2.386-2.393 2.39 2.39 0 0 1 2.388 2.393"/></g><g><path fill="#0069a3" d="M143.674 15.553a2.39 2.39 0 0 1-2.387 2.394 2.39 2.39 0 0 1-2.387-2.394 2.39 2.39 0 0 1 2.387-2.393 2.39 2.39 0 0 1 2.387 2.393"/></g><g><path fill="#0069a3" d="M88.774 30.512c0 1.652-1.068 2.992-2.388 2.992-1.317 0-2.386-1.34-2.386-2.992s1.069-2.992 2.386-2.992c1.32 0 2.388 1.34 2.388 2.992"/></g><g><path fill="#0069a3" d="M103.094 30.512c0 1.652-1.068 2.992-2.387 2.992-1.318 0-2.387-1.34-2.387-2.992s1.069-2.992 2.387-2.992c1.319 0 2.387 1.34 2.387 2.992"/></g><g><path fill="#0069a3" d="M116.224 30.512c0 1.652-1.069 2.992-2.387 2.992-1.319 0-2.387-1.34-2.387-2.992s1.068-2.992 2.387-2.992c1.318 0 2.387 1.34 2.387 2.992"/></g><g><path fill="#0069a3" d="M130.544 30.512c0 1.652-1.069 2.992-2.388 2.992-1.318 0-2.386-1.34-2.386-2.992s1.068-2.992 2.386-2.992c1.32 0 2.388 1.34 2.388 2.992"/></g><g><path fill="#0069a3" d="M143.674 30.512c0 1.652-1.068 2.992-2.387 2.992-1.318 0-2.387-1.34-2.387-2.992s1.069-2.992 2.387-2.992c1.32 0 2.387 1.34 2.387 2.992"/></g><g><path fill="#0069a3" d="M88.774 43.681c0 1.653-1.068 2.993-2.388 2.993-1.317 0-2.386-1.34-2.386-2.993 0-1.651 1.069-2.991 2.386-2.991 1.32 0 2.388 1.34 2.388 2.991"/></g><g><path fill="#0069a3" d="M103.094 43.681c0 1.653-1.068 2.993-2.387 2.993-1.318 0-2.387-1.34-2.387-2.993 0-1.651 1.069-2.991 2.387-2.991 1.319 0 2.387 1.34 2.387 2.991"/></g><g><path fill="#0069a3" d="M116.224 43.681c0 1.653-1.069 2.993-2.387 2.993-1.319 0-2.387-1.34-2.387-2.993 0-1.651 1.068-2.991 2.387-2.991 1.318 0 2.387 1.34 2.387 2.991"/></g><g><path fill="#0069a3" d="M130.544 43.681c0 1.653-1.069 2.993-2.388 2.993-1.318 0-2.386-1.34-2.386-2.993 0-1.651 1.068-2.991 2.386-2.991 1.32 0 2.388 1.34 2.388 2.991"/></g><g><path fill="#0069a3" d="M143.674 43.681c0 1.653-1.068 2.993-2.387 2.993-1.318 0-2.387-1.34-2.387-2.993 0-1.651 1.069-2.991 2.387-2.991 1.32 0 2.387 1.34 2.387 2.991"/></g><g><path fill="#0069a3" d="M88.774 57.443a2.39 2.39 0 0 1-2.388 2.394A2.39 2.39 0 0 1 84 57.443a2.39 2.39 0 0 1 2.386-2.393 2.39 2.39 0 0 1 2.388 2.393"/></g><g><path fill="#0069a3" d="M103.094 57.443a2.39 2.39 0 0 1-2.387 2.394 2.39 2.39 0 0 1-2.387-2.394 2.39 2.39 0 0 1 2.387-2.393 2.39 2.39 0 0 1 2.387 2.393"/></g><g><path fill="#0069a3" d="M116.224 57.443a2.39 2.39 0 0 1-2.387 2.394 2.39 2.39 0 0 1-2.387-2.394 2.39 2.39 0 0 1 2.387-2.393 2.39 2.39 0 0 1 2.387 2.393"/></g><g><path fill="#0069a3" d="M130.544 57.443a2.39 2.39 0 0 1-2.388 2.394 2.39 2.39 0 0 1-2.386-2.394 2.39 2.39 0 0 1 2.386-2.393 2.39 2.39 0 0 1 2.388 2.393"/></g><g><path fill="#0069a3" d="M143.674 57.443a2.39 2.39 0 0 1-2.387 2.394 2.39 2.39 0 0 1-2.387-2.394 2.39 2.39 0 0 1 2.387-2.393 2.39 2.39 0 0 1 2.387 2.393"/></g><g><path fill="#0069a3" d="M88.774 70.603a2.39 2.39 0 0 1-2.388 2.394A2.39 2.39 0 0 1 84 70.603a2.39 2.39 0 0 1 2.386-2.393 2.39 2.39 0 0 1 2.388 2.393"/></g><g><path fill="#0069a3" d="M103.094 70.603a2.39 2.39 0 0 1-2.387 2.394 2.39 2.39 0 0 1-2.387-2.394 2.39 2.39 0 0 1 2.387-2.393 2.39 2.39 0 0 1 2.387 2.393"/></g><g><path fill="#0069a3" d="M116.224 70.603a2.39 2.39 0 0 1-2.387 2.394 2.39 2.39 0 0 1-2.387-2.394 2.39 2.39 0 0 1 2.387-2.393 2.39 2.39 0 0 1 2.387 2.393"/></g><g><path fill="#0069a3" d="M130.544 70.603a2.39 2.39 0 0 1-2.388 2.394 2.39 2.39 0 0 1-2.386-2.394 2.39 2.39 0 0 1 2.386-2.393 2.39 2.39 0 0 1 2.388 2.393"/></g><g><path fill="#0069a3" d="M143.674 70.603a2.39 2.39 0 0 1-2.387 2.394 2.39 2.39 0 0 1-2.387-2.394 2.39 2.39 0 0 1 2.387-2.393 2.39 2.39 0 0 1 2.387 2.393"/></g><g><path fill="#0069a3" d="M158.004 2.393a2.39 2.39 0 0 1-2.387 2.394 2.39 2.39 0 0 1-2.387-2.394A2.39 2.39 0 0 1 155.617 0a2.39 2.39 0 0 1 2.387 2.393"/></g><g><path fill="#0069a3" d="M158.004 15.553a2.39 2.39 0 0 1-2.387 2.394 2.39 2.39 0 0 1-2.387-2.394 2.39 2.39 0 0 1 2.387-2.393 2.39 2.39 0 0 1 2.387 2.393"/></g><g><path fill="#0069a3" d="M158.004 30.512c0 1.652-1.068 2.992-2.387 2.992-1.318 0-2.387-1.34-2.387-2.992s1.069-2.992 2.387-2.992c1.32 0 2.387 1.34 2.387 2.992"/></g><g><path fill="#0069a3" d="M158.004 43.681c0 1.653-1.068 2.993-2.387 2.993-1.318 0-2.387-1.34-2.387-2.993 0-1.651 1.069-2.991 2.387-2.991 1.32 0 2.387 1.34 2.387 2.991"/></g><g><path fill="#0069a3" d="M158.004 57.443a2.39 2.39 0 0 1-2.387 2.394 2.39 2.39 0 0 1-2.387-2.394 2.39 2.39 0 0 1 2.387-2.393 2.39 2.39 0 0 1 2.387 2.393"/></g><g><path fill="#0069a3" d="M158.004 70.603a2.39 2.39 0 0 1-2.387 2.394 2.39 2.39 0 0 1-2.387-2.394 2.39 2.39 0 0 1 2.387-2.393 2.39 2.39 0 0 1 2.387 2.393"/></g></g></g></g></svg>