<svg xmlns="http://www.w3.org/2000/svg" width="195" height="35" viewBox="0 0 195 35"><g><g><g><g><path fill="#97a4b0" d="M49.16 10.192c0-1.29 1.047-2.322 2.356-2.322h11.941c1.178 0 2.127.935 2.127 2.097 0 1.16-.95 2.096-2.127 2.096h-9.586v4.483h8.245c1.178 0 2.126.936 2.126 2.097 0 1.16-.948 2.096-2.126 2.096H53.87v6.032c0 1.29-1.047 2.322-2.355 2.322-1.309 0-2.356-1.032-2.356-2.322z"/></g><g><path fill="#97a4b0" d="M67.323 10.032c0-1.29 1.047-2.322 2.355-2.322 1.31 0 2.356 1.032 2.356 2.322V24.74h8.67c1.178 0 2.126.936 2.126 2.097s-.948 2.097-2.126 2.097H69.646c-1.309 0-2.356-1.033-2.356-2.323V10.033h.033z"/></g><g><path fill="#97a4b0" d="M91.33 20.138l2.945-6.944 2.944 6.944zm-7.328 5.828a2.279 2.279 0 0 0-.262 1c0 1.194.949 2.161 2.16 2.161.98 0 1.766-.548 2.159-1.451l1.505-3.451h9.39l1.44 3.322c.424.935 1.144 1.58 2.257 1.58 1.243 0 2.224-1 2.224-2.225 0-.29-.065-.613-.229-.936l-7.46-16.578c-.523-1.16-1.439-1.838-2.715-1.838h-.261c-1.276 0-2.225.71-2.749 1.838z"/></g><g><path fill="#97a4b0" d="M109.324 12.167h-4.515c-1.177 0-2.159-.967-2.159-2.128 0-1.162.982-2.129 2.16-2.129h13.74c1.178 0 2.16.967 2.16 2.129 0 1.16-.982 2.128-2.16 2.128h-4.515V26.81c0 1.29-1.047 2.322-2.355 2.322-1.31 0-2.356-1.032-2.356-2.322V12.167z"/></g></g><g><g><path fill="#97a4b0" d="M122.45 10.032c0-1.29 1.047-2.322 2.356-2.322 1.308 0 2.355 1.032 2.355 2.322v16.772c0 1.29-1.047 2.322-2.355 2.322-1.309 0-2.356-1.032-2.356-2.322z"/></g><g><path fill="#97a4b0" d="M129.91 18.486v-.065c0-5.999 4.58-10.901 11.124-10.901 3.206 0 5.365.838 7.132 2.129.49.354.916 1.032.916 1.838 0 1.258-1.047 2.258-2.323 2.258-.654 0-1.08-.226-1.407-.452-1.308-.967-2.683-1.516-4.351-1.516-3.6 0-6.184 2.935-6.184 6.547v.065c0 3.612 2.52 6.612 6.184 6.612 1.996 0 3.304-.613 4.646-1.645.36-.29.85-.516 1.407-.516 1.177 0 2.192.968 2.192 2.129 0 .71-.36 1.29-.786 1.645-1.93 1.645-4.187 2.644-7.59 2.644-6.281.065-10.96-4.74-10.96-10.772z"/></g><g><path fill="#97a4b0" d="M161.735 25.033c-3.795 0-6.478-3-6.478-6.612v-.064c0-3.613 2.618-6.548 6.413-6.548 3.795 0 6.478 3 6.478 6.612v.065c0 3.612-2.618 6.547-6.413 6.547zm-11.385-6.547c0 5.967 4.744 10.837 11.32 10.837 6.608 0 11.385-4.902 11.385-10.901v-.065c0-5.999-4.744-10.837-11.32-10.837-6.608 0-11.385 4.902-11.385 10.901z"/></g><g><path fill="#97a4b0" d="M175.77 10.096c0-1.29 1.047-2.322 2.356-2.322h.49c1.146 0 1.8.549 2.454 1.355l9.063 11.74V9.999c0-1.257 1.047-2.289 2.322-2.289 1.276 0 2.323 1.032 2.323 2.29v16.739c0 1.29-1.047 2.322-2.355 2.322h-.164c-1.145 0-1.8-.548-2.454-1.355l-9.39-12.159v11.289c0 1.257-1.046 2.29-2.322 2.29s-2.323-1.033-2.323-2.29z"/></g></g><g><path fill="#97a4b0" d="M16.804 19.262h4.352l3.86-6.353H12.911L8.919 6.394h20.088L32.868.04H3.227A3.24 3.24 0 0 0 .413 1.653c-.556 1-.556 2.225.033 3.193l17.503 28.576a3.222 3.222 0 0 0 2.749 1.548c1.112 0 2.159-.58 2.748-1.548l1.014-1.645z"/></g><g><g><path fill="#97a4b0" d="M32.51 6.394h7.525l.948-1.548a3.106 3.106 0 0 0 .033-3.193C40.46.653 39.38.04 38.202.04H36.37z"/></g><g><path fill="#97a4b0" d="M30.68 9.42L22.5 22.805l3.73 6.128L38.17 9.42z"/></g></g></g></g></svg>