<svg xmlns="http://www.w3.org/2000/svg" width="27" height="25" viewBox="0 0 27 25"><g><g><path fill="#182359" d="M13.5 0a12.706 12.706 0 0 0-4.018 24.76c.635.12.873-.27.873-.61l-.032-2.153c-3.533.77-4.28-1.707-4.28-1.707-.572-1.461-1.405-1.858-1.405-1.858-1.16-.787.079-.77.079-.77 1.278.087 1.953 1.31 1.953 1.31 1.128 1.945 2.97 1.381 3.693 1.056a2.716 2.716 0 0 1 .81-1.7c-2.819-.317-5.789-1.413-5.789-6.273 0-1.39.492-2.526 1.31-3.415-.135-.318-.571-1.612.127-3.36 0 0 1.064-.34 3.494 1.303a12.166 12.166 0 0 1 6.353 0c2.43-1.644 3.495-1.302 3.495-1.302.69 1.747.262 3.041.127 3.359a4.9 4.9 0 0 1 1.31 3.415c0 4.876-2.978 5.956-5.797 6.265.445.397.857 1.168.857 2.35l-.015 3.495c0 .334.23.73.873.604A12.706 12.706 0 0 0 13.5 0"/></g></g></svg>