<svg xmlns="http://www.w3.org/2000/svg" width="25" height="26" viewBox="0 0 25 26"><g><g><g><path fill="#4285f4" d="M24.575 13.335c0-.871-.075-1.712-.227-2.515H12.53v4.758h6.758a5.652 5.652 0 0 1-2.5 3.712v3.083h4.045c2.371-2.136 3.742-5.288 3.742-9.038z"/></g><g><path fill="#34a853" d="M12.535 25.36c3.386 0 6.22-1.106 8.295-2.985l-4.053-3.083a7.644 7.644 0 0 1-4.242 1.174 7.455 7.455 0 0 1-7.016-5.076H1.33v3.19a12.56 12.56 0 0 0 11.205 6.78z"/></g><g><path fill="#fbbc05" d="M5.52 15.396a7.273 7.273 0 0 1 0-4.674V7.54H1.332a12.106 12.106 0 0 0 0 11.038l4.19-3.182z"/></g><g><path fill="#ea4335" d="M12.535 5.655c1.84 0 3.492.621 4.795 1.833l3.59-3.523A12.182 12.182 0 0 0 12.536.761 12.56 12.56 0 0 0 1.33 7.534l4.19 3.181a7.455 7.455 0 0 1 7.015-5.06z"/></g></g></g></svg>