<svg xmlns="http://www.w3.org/2000/svg" width="60" height="60" viewBox="0 0 60 60"><g><g><g><path fill="#0069a3" d="M36.758 15.578a.978.978 0 0 1-.986-.966H33.8c0 1.258.827 2.32 1.972 2.72v2.11h1.972v-2.11c1.144-.4 1.971-1.462 1.971-2.72 0-1.597-1.327-2.897-2.957-2.897a.978.978 0 0 1-.986-.966c0-.532.443-.966.986-.966.543 0 .986.434.986.966h1.971c0-1.257-.827-2.32-1.971-2.72V5.92h-1.972v2.11c-1.145.4-1.972 1.462-1.972 2.719 0 1.597 1.327 2.897 2.958 2.897.543 0 .986.434.986.966a.978.978 0 0 1-.986.966z"/></g><g><path fill="#facc5f" d="M58.086 58.067H54.26V47.384h3.826zm-9.573 0h-3.815V43.503h3.815zm-9.563-.01h-3.815V35.74h3.815zm-9.552 0h-3.825V39.622h3.825zm22.95-12.614v12.614h-1.913V41.562h-7.65v16.495h-1.912V33.8h-7.65v24.257H31.31V37.68h-7.65v22.316h36.338V45.443z"/></g><g><path fill="#facc5f" d="M55.42 39.995c.53 0 .963.445.963.99 0 .546-.432.99-.962.99s-.963-.444-.963-.99c0-.545.432-.99.963-.99zm-9.619-1.96a.98.98 0 0 1-.967-.991.98.98 0 0 1 .967-.99.98.98 0 0 1 .968.99.98.98 0 0 1-.968.99zm-9.63-7.884c-.53 0-.962-.444-.962-.99s.432-.99.963-.99c.53 0 .962.444.962.99s-.432.99-.962.99zm-9.619 3.942a.98.98 0 0 1-.967-.99.98.98 0 0 1 .967-.99.98.98 0 0 1 .968.99.98.98 0 0 1-.968.99zm22.131 2.952c0-1.63-1.295-2.958-2.887-2.958-.558 0-1.075.17-1.517.453l-5.39-4.418a2.99 2.99 0 0 0 .17-.964c0-1.631-1.295-2.958-2.887-2.958s-2.888 1.327-2.888 2.958c0 .04.01.077.012.116l-4.59 1.881a2.841 2.841 0 0 0-2.159-1.011c-1.592 0-2.887 1.327-2.887 2.957 0 1.631 1.295 2.958 2.887 2.958s2.888-1.327 2.888-2.958c0-.039-.01-.076-.012-.116l4.59-1.881a2.841 2.841 0 0 0 2.159 1.011c.558 0 1.075-.17 1.517-.452l5.39 4.418a2.99 2.99 0 0 0-.17.964c0 1.63 1.295 2.958 2.887 2.958a2.84 2.84 0 0 0 2.157-1.012l4.592 1.881c-.002.04-.012.077-.012.117 0 1.63 1.296 2.957 2.888 2.957 1.591 0 2.887-1.327 2.887-2.957 0-1.631-1.296-2.958-2.887-2.958a2.84 2.84 0 0 0-2.157 1.012l-4.592-1.882c.002-.039.011-.076.011-.116z"/></g><g><path fill="#0069a3" d="M16.338 19.355v8.71h-9.61v-7.742H4.804v11.129c0 .8-.646 1.451-1.441 1.451a1.448 1.448 0 0 1-1.442-1.451V19.556c0-1.371.929-2.536 2.258-2.834l6.392-1.43v-1.83c.313.053.633.086.96.086.328 0 .648-.033.962-.087v1.97l15.875.889c.798.045 1.424.71 1.424 1.516 0 .838-.677 1.519-1.508 1.519zm.01 38.71h-3.854V30h3.854zm-5.776 0H6.727V30h3.845zM7.688 7.735V5.803c0-2.132 1.725-3.867 3.845-3.867s3.844 1.735 3.844 3.867v1.934c0 2.133-1.724 3.867-3.844 3.867S7.688 9.869 7.688 7.736zm28.832-5.8c5.83 0 10.572 4.776 10.572 10.646 0 5.869-4.743 10.645-10.572 10.645-2.413 0-4.739-.857-6.606-2.37a3.447 3.447 0 0 0 1.801-3.02c0-1.832-1.423-3.347-3.24-3.449l-2.373-.132a10.574 10.574 0 0 1-.153-1.674c0-5.87 4.742-10.646 10.571-10.646zm0 23.226c6.89 0 12.494-5.644 12.494-12.58C49.014 5.644 43.41 0 36.52 0c-6.889 0-12.493 5.644-12.493 12.58 0 .515.042 1.038.11 1.565l-9.721-.544v-.838a5.812 5.812 0 0 0 2.883-5.021V5.806C17.3 2.604 14.713 0 11.533 0S5.766 2.604 5.766 5.806v1.936a5.812 5.812 0 0 0 2.884 5.02v.978l-4.886 1.094C1.547 15.329 0 17.27 0 19.556v11.896c0 1.867 1.509 3.387 3.364 3.387a3.31 3.31 0 0 0 1.441-.34V60H18.26V21.29h9.285c2.353 2.458 5.592 3.871 8.975 3.871z"/></g></g></g></svg>