<svg xmlns="http://www.w3.org/2000/svg" width="49" height="60" viewBox="0 0 49 60"><g><g><g><path fill="#0069a3" d="M47.286 58.049c0 .27-.219.488-.488.488H27.286a.488.488 0 0 1-.488-.488V29.055c0-.27.218-.488.488-.488h19.512c.27 0 .488.218.488.488zM24.802 47.112l-3.544-2.836a.732.732 0 0 0-.915 0L16.8 47.112l-3.544-2.836a.732.732 0 0 0-.915 0l-3.544 2.836-3.545-2.836a.732.732 0 0 0-.915 0l-2.813 2.25V5.937a4.477 4.477 0 0 1 4.472-4.473H33.7a5.247 5.247 0 0 0-1.628 3.8v21.84h-4.786a1.954 1.954 0 0 0-1.952 1.952v17.63zM41.137 5.264v11.21h-7.601V5.264a3.801 3.801 0 0 1 7.601 0zm5.66 21.84H33.537v-9.166h8.333a.732.732 0 0 0 .731-.732V5.264A5.27 5.27 0 0 0 37.584.006V0H5.995A5.942 5.942 0 0 0 .06 5.935V48.05a.732.732 0 0 0 1.189.571l3.545-2.835 3.545 2.835a.732.732 0 0 0 .915 0l3.544-2.835 3.544 2.835a.732.732 0 0 0 .915 0l3.545-2.835 3.544 2.835a.732.732 0 0 0 .915 0l.075-.06v9.489c0 1.077.874 1.95 1.951 1.951h19.512a1.954 1.954 0 0 0 1.951-1.951V29.055a1.954 1.954 0 0 0-1.952-1.951z"/></g><g><path fill="#facc5f" d="M44.543 34.128h-15v-2.815h15zm.732-4.278H28.812a.732.732 0 0 0-.732.732v4.268c0 .404.328.732.732.732h16.463a.732.732 0 0 0 .732-.732v-4.268a.732.732 0 0 0-.732-.732z"/></g><g><path fill="#facc5f" d="M31.739 41.889h-2.196v-2.196h2.196zm.731-3.659h-3.658a.732.732 0 0 0-.732.732v3.658c0 .404.328.732.732.732h3.658a.732.732 0 0 0 .732-.732v-3.658a.732.732 0 0 0-.732-.732z"/></g><g><path fill="#facc5f" d="M37.869 41.889h-2.196v-2.196h2.196zm.731-3.659h-3.658a.732.732 0 0 0-.732.732v3.658c0 .404.328.732.732.732H38.6a.732.732 0 0 0 .732-.732v-3.658a.732.732 0 0 0-.732-.732z"/></g><g><path fill="#facc5f" d="M44.536 41.889h-2.19v-2.196h2.19zm.734-3.659h-3.658a.732.732 0 0 0-.732.732v3.658c0 .404.328.732.732.732h3.658a.732.732 0 0 0 .732-.732v-3.658a.732.732 0 0 0-.732-.732z"/></g><g><path fill="#facc5f" d="M31.739 48.286h-2.196v-2.19h2.196zm.731-3.656h-3.658a.732.732 0 0 0-.732.732v3.658c0 .404.328.732.732.732h3.658a.732.732 0 0 0 .732-.732v-3.658a.732.732 0 0 0-.732-.732z"/></g><g><path fill="#facc5f" d="M37.869 48.286h-2.196v-2.19h2.196zm.731-3.656h-3.658a.732.732 0 0 0-.732.732v3.658c0 .404.328.732.732.732H38.6a.732.732 0 0 0 .732-.732v-3.658a.732.732 0 0 0-.732-.732z"/></g><g><path fill="#facc5f" d="M44.536 48.286h-2.19v-2.19h2.19zm.734-3.656h-3.658a.732.732 0 0 0-.732.732v3.658c0 .404.328.732.732.732h3.658a.732.732 0 0 0 .732-.732v-3.658a.732.732 0 0 0-.732-.732z"/></g><g><path fill="#facc5f" d="M31.739 54.699h-2.196v-2.196h2.196zm.731-3.659h-3.658a.732.732 0 0 0-.732.732v3.658c0 .404.328.732.732.732h3.658a.732.732 0 0 0 .732-.732v-3.658a.732.732 0 0 0-.732-.732z"/></g><g><path fill="#facc5f" d="M37.869 54.699h-2.196v-2.196h2.196zm.731-3.659h-3.658a.732.732 0 0 0-.732.732v3.658c0 .404.328.732.732.732H38.6a.732.732 0 0 0 .732-.732v-3.658a.732.732 0 0 0-.732-.732z"/></g><g><path fill="#facc5f" d="M44.536 54.699h-2.19v-2.196h2.19zm.734-3.659h-3.658a.732.732 0 0 0-.732.732v3.658c0 .404.328.732.732.732h3.658a.732.732 0 0 0 .732-.732v-3.658a.732.732 0 0 0-.732-.732z"/></g><g><path fill="#0069a3" d="M4.942 21.953h.286a.732.732 0 1 0 0-1.463h-.286a.732.732 0 0 0 0 1.463z"/></g><g><path fill="#0069a3" d="M10.254 20.49H8.092a.732.732 0 0 0 0 1.463h2.162a.732.732 0 0 0 0-1.463z"/></g><g><path fill="#0069a3" d="M29.382 21.222a.732.732 0 0 0-.732-.732H13.152a.732.732 0 0 0 0 1.463H28.65a.732.732 0 0 0 .732-.731z"/></g><g><path fill="#0069a3" d="M4.942 15.853h.286a.732.732 0 1 0 0-1.463h-.286a.732.732 0 0 0 0 1.463z"/></g><g><path fill="#0069a3" d="M10.254 14.39H8.092a.732.732 0 0 0 0 1.463h2.162a.732.732 0 0 0 0-1.463z"/></g><g><path fill="#0069a3" d="M13.152 15.853H28.65a.732.732 0 0 0 0-1.463H13.152a.732.732 0 0 0 0 1.463z"/></g><g><path fill="#0069a3" d="M4.942 9.753h.286a.732.732 0 1 0 0-1.463h-.286a.732.732 0 0 0 0 1.463z"/></g><g><path fill="#0069a3" d="M10.254 8.29H8.092a.732.732 0 0 0 0 1.463h2.162a.732.732 0 0 0 0-1.463z"/></g><g><path fill="#0069a3" d="M13.152 9.753H28.65a.732.732 0 0 0 0-1.463H13.152a.732.732 0 0 0 0 1.463z"/></g><g><path fill="#0069a3" d="M4.942 28.053h.286a.732.732 0 1 0 0-1.463h-.286a.732.732 0 0 0 0 1.463z"/></g><g><path fill="#0069a3" d="M10.254 26.59H8.092a.732.732 0 0 0 0 1.463h2.162a.732.732 0 0 0 0-1.463z"/></g><g><path fill="#0069a3" d="M13.152 28.053h9.4a.732.732 0 0 0 0-1.463h-9.4a.732.732 0 0 0 0 1.463z"/></g><g><path fill="#facc5f" d="M6.763 34.692c.6 0 1.086.487 1.087 1.086a.732.732 0 1 0 1.463 0 2.553 2.553 0 0 0-1.818-2.44v-.376a.732.732 0 1 0-1.464 0v.375a2.548 2.548 0 0 0 .732 4.992 1.087 1.087 0 0 1 .013 2.172l-.013-.001H6.75a1.087 1.087 0 0 1-1.073-1.084.732.732 0 1 0-1.464 0 2.553 2.553 0 0 0 1.819 2.441v.458a.732.732 0 0 0 1.463 0v-.458a2.548 2.548 0 0 0-.732-4.991 1.086 1.086 0 1 1 0-2.173z"/></g><g><path fill="#facc5f" d="M23.415 38.87h-2.783a.732.732 0 0 0 0 1.463h2.783a.732.732 0 1 0 0-1.463z"/></g><g><path fill="#facc5f" d="M18.039 38.87h-5.427a.732.732 0 0 0 0 1.463h5.427a.731.731 0 1 0 0-1.463z"/></g></g></g></svg>