<svg xmlns="http://www.w3.org/2000/svg" width="16" height="16" viewBox="0 0 16 16"><g><g><path fill="#979797" d="M7 9h2V7H7zm3.25.25a1 1 0 0 1-1 1h-2.5a1 1 0 0 1-1-1v-2.5a1 1 0 0 1 1-1h2.5a1 1 0 0 1 1 1zM7 14.75h2v-2H7zm3.25.25a1 1 0 0 1-1 1h-2.5a1 1 0 0 1-1-1v-2.5a1 1 0 0 1 1-1h2.5a1 1 0 0 1 1 1zM7 3.25h2v-2H7zm3.25.25a1 1 0 0 1-1 1h-2.5a1 1 0 0 1-1-1V1a1 1 0 0 1 1-1h2.5a1 1 0 0 1 1 1zm-9 5.5h2V7h-2zm3.25.25a1 1 0 0 1-1 1H1a1 1 0 0 1-1-1v-2.5a1 1 0 0 1 1-1h2.5a1 1 0 0 1 1 1zm-3.25 5.5h2v-2h-2zM4.5 15a1 1 0 0 1-1 1H1a1 1 0 0 1-1-1v-2.5a1 1 0 0 1 1-1h2.5a1 1 0 0 1 1 1zM1.25 3.25h2v-2h-2zm3.25.25a1 1 0 0 1-1 1H1a1 1 0 0 1-1-1V1a1 1 0 0 1 1-1h2.5a1 1 0 0 1 1 1zM12.75 9h2V7h-2zm3.25.25a1 1 0 0 1-1 1h-2.5a1 1 0 0 1-1-1v-2.5a1 1 0 0 1 1-1H15a1 1 0 0 1 1 1zm-3.25 5.5h2v-2h-2zM16 15a1 1 0 0 1-1 1h-2.5a1 1 0 0 1-1-1v-2.5a1 1 0 0 1 1-1H15a1 1 0 0 1 1 1zM12.75 3.25h2v-2h-2zM16 3.5a1 1 0 0 1-1 1h-2.5a1 1 0 0 1-1-1V1a1 1 0 0 1 1-1H15a1 1 0 0 1 1 1z"/></g></g></svg>