<svg xmlns="http://www.w3.org/2000/svg" width="62" height="71" viewBox="0 0 62 71"><g><g><g><path d="M26.505 9.677a1.172 1.172 0 1 1 0-2.344 1.172 1.172 0 0 1 0 2.344zM26.5 5a3.5 3.5 0 1 0 0 7 3.5 3.5 0 0 0 0-7z"/></g><g><path d="M44.657 44.677h-9.414v-5.95a5.716 5.716 0 0 0-3.852-5.372 5.803 5.803 0 0 0-.464-8.24c-2.422-2.15-6.142-1.943-8.308.46a5.8 5.8 0 0 0 0 7.78 5.716 5.716 0 0 0-3.852 5.372v5.95H9.353V21.333h35.304zM23.471 29.5c0-1.933 1.58-3.5 3.529-3.5 1.95 0 3.53 1.567 3.53 3.5-.003 1.932-1.582 3.498-3.53 3.5-1.95 0-3.53-1.567-3.53-3.5zm-2.353 15.177v-5.954c.002-1.871 1.53-3.388 3.414-3.39h4.936c1.885.002 3.413 1.519 3.414 3.39v5.954zM45.824 19H8.176C7.526 19 7 19.522 7 20.167v25.666C7 46.478 7.527 47 8.176 47h37.648c.65 0 1.176-.522 1.176-1.167V20.167c0-.645-.527-1.167-1.176-1.167z"/></g><g><path d="M7 50h18v3H7z"/></g><g><path d="M27 50h7v3h-7z"/></g><g><path d="M7 56h28v3H7z"/></g><g><path d="M36 50h5v3h-5z"/></g><g><path d="M47.89 63.337l-5.292-5.354 1.855-1.876 2.682 2.713c.237.236.56.362.892.345.332-.019.641-.18.849-.443l8.542-10.8 1.824 1.845zM2.34 68.623V9.467h16.658l1.087 6.124c.1.564.585.975 1.152.974h11.338c.566 0 1.051-.41 1.151-.974l1.087-6.124h16.659v42.178l-3.607 4.559-2.585-2.615a1.16 1.16 0 0 0-1.654 0l-3.51 3.55a1.192 1.192 0 0 0 0 1.672l7.02 7.1c.219.221.516.346.826.346l.049-.001c.327-.014.633-.165.844-.418l2.617-3.127v5.912zM33.696 2.367l-2.1 11.833h-9.38l-2.1-11.833zm27.961 46.496l-3.509-3.55a1.16 1.16 0 0 0-1.74.098l-2.596 3.282V8.283c0-.653-.524-1.183-1.17-1.183H35.233l1.013-5.708A1.182 1.182 0 0 0 35.094 0H18.717a1.177 1.177 0 0 0-1.151 1.392L18.578 7.1H1.17C.524 7.1 0 7.63 0 8.283v61.534C0 70.47.524 71 1.17 71h51.472c.646 0 1.17-.53 1.17-1.183v-9.894l7.911-9.459a1.193 1.193 0 0 0-.066-1.6z"/></g><g><path d="M7 64h11v3H7z"/></g><g><path d="M20 64h19v3H20z"/></g></g></g></svg>