<svg xmlns="http://www.w3.org/2000/svg" width="22" height="22" viewBox="0 0 22 22"><g><g><g><path fill="none" stroke="#003552" stroke-linecap="round" stroke-linejoin="round" stroke-miterlimit="50" stroke-width="2" d="M8.5 1v0h5v5h-5v0z"/></g><g><path fill="none" stroke="#003552" stroke-linecap="round" stroke-linejoin="round" stroke-miterlimit="50" stroke-width="2" d="M16 1v0h5v5h-5v0z"/></g><g><path fill="none" stroke="#003552" stroke-linecap="round" stroke-linejoin="round" stroke-miterlimit="50" stroke-width="2" d="M16 8.5v0h5v5h-5v0z"/></g><g><path fill="none" stroke="#003552" stroke-linecap="round" stroke-linejoin="round" stroke-miterlimit="50" stroke-width="2" d="M8.5 8.5v0h5v5h-5v0z"/></g><g><path fill="none" stroke="#003552" stroke-linecap="round" stroke-linejoin="round" stroke-miterlimit="50" stroke-width="2" d="M1 1v0h5v5H1v0z"/></g><g><path fill="none" stroke="#003552" stroke-linecap="round" stroke-linejoin="round" stroke-miterlimit="50" stroke-width="2" d="M1 8.5v0h5v5H1v0z"/></g><g><path fill="none" stroke="#003552" stroke-linecap="round" stroke-linejoin="round" stroke-miterlimit="50" stroke-width="2" d="M16 16v0h5v5h-5v0z"/></g><g><path fill="none" stroke="#003552" stroke-linecap="round" stroke-linejoin="round" stroke-miterlimit="50" stroke-width="2" d="M8.5 16v0h5v5h-5v0z"/></g><g><path fill="none" stroke="#003552" stroke-linecap="round" stroke-linejoin="round" stroke-miterlimit="50" stroke-width="2" d="M1 16v0h5v5H1v0z"/></g></g></g></svg>