<svg xmlns="http://www.w3.org/2000/svg" width="21" height="16" viewBox="0 0 21 16"><g><g><g><path fill="#003552" d="M1.156 1.156h2.052v2.052H1.156zM0 3.364a1 1 0 0 0 1 1h2.364a1 1 0 0 0 1-1V1a1 1 0 0 0-1-1H1a1 1 0 0 0-1 1z"/></g><g><path fill="#003552" d="M19.163 3.208H7.023V1.156h12.14zM6.82 0a1 1 0 0 0-1 1v2.364a1 1 0 0 0 1 1h12.545a1 1 0 0 0 1-1V1a1 1 0 0 0-1-1z"/></g><g><path fill="#003552" d="M1.156 6.975h2.052v2.053H1.156zM0 9.184a1 1 0 0 0 1 1h2.364a1 1 0 0 0 1-1V6.82a1 1 0 0 0-1-1H1a1 1 0 0 0-1 1z"/></g><g><path fill="#003552" d="M7.022 6.975h12.141v2.053H7.023zM5.82 9.184a1 1 0 0 0 1 1h12.545a1 1 0 0 0 1-1V6.82a1 1 0 0 0-1-1H6.82a1 1 0 0 0-1 1z"/></g><g><path fill="#003552" d="M1.156 12.796h2.052v2.052H1.156zM0 15.004a1 1 0 0 0 1 1h2.364a1 1 0 0 0 1-1V12.64a1 1 0 0 0-1-1H1a1 1 0 0 0-1 1z"/></g><g><path fill="#003552" d="M7.022 12.796h12.141v2.052H7.023zM5.82 15.004a1 1 0 0 0 1 1h12.545a1 1 0 0 0 1-1V12.64a1 1 0 0 0-1-1H6.82a1 1 0 0 0-1 1z"/></g></g></g></svg>