<svg xmlns="http://www.w3.org/2000/svg" width="71" height="71" viewBox="0 0 71 71"><g><g><g><path d="M52.28 66.84c-8.03 0-14.561-6.532-14.561-14.56 0-8.03 6.531-14.561 14.56-14.561 8.03 0 14.56 6.531 14.56 14.56 0 8.03-6.53 14.56-14.56 14.56zM4.16 58.52V20.94h58.52V36.72a18.615 18.615 0 0 0-10.4-3.162c-6.574 0-12.365 3.405-15.706 8.544a2.068 2.068 0 0 0-.935-.224h-4.16a2.08 2.08 0 1 0 0 4.16h3.15a18.566 18.566 0 0 0-.954 4.16H31.48a2.08 2.08 0 1 0 0 4.16h2.196c.16 1.442.484 2.836.955 4.16zm8.46-50.061v2.08a2.08 2.08 0 1 0 4.16 0V8.46h8.32v2.08a2.08 2.08 0 1 0 4.16 0V8.46h8.32v2.08a2.08 2.08 0 1 0 4.16 0V8.46h8.32v2.08a2.08 2.08 0 1 0 4.16 0V8.46h8.46v8.32H4.16V8.46zm54.22 32.068V6.379a2.08 2.08 0 0 0-2.08-2.08H54.22V2.08a2.08 2.08 0 1 0-4.16 0V4.3h-8.32V2.08a2.08 2.08 0 1 0-4.16 0V4.3h-8.32V2.08a2.08 2.08 0 1 0-4.16 0V4.3h-8.32V2.08a2.08 2.08 0 1 0-4.16 0V4.3H2.08A2.08 2.08 0 0 0 0 6.379v54.22a2.08 2.08 0 0 0 2.08 2.08h34.641C40.084 67.694 45.802 71 52.279 71 62.602 71 71 62.602 71 52.28c0-4.448-1.56-8.538-4.16-11.753z"/></g><g><path d="M60.6 50.2h-6.24v-6.24a2.08 2.08 0 1 0-4.16 0v8.32a2.08 2.08 0 0 0 2.08 2.08h8.32a2.08 2.08 0 1 0 0-4.16z"/></g><g><path d="M18.86 25.24H14.7a2.08 2.08 0 1 0 0 4.16h4.16a2.08 2.08 0 1 0 0-4.16z"/></g><g><path d="M18.86 33.56H14.7a2.08 2.08 0 1 0 0 4.16h4.16a2.08 2.08 0 1 0 0-4.16z"/></g><g><path d="M18.86 41.88H14.7a2.08 2.08 0 1 0 0 4.16h4.16a2.08 2.08 0 1 0 0-4.16z"/></g><g><path d="M31.48 29.4h4.16a2.08 2.08 0 1 0 0-4.16h-4.16a2.08 2.08 0 1 0 0 4.16z"/></g><g><path d="M31.48 37.72h4.16a2.08 2.08 0 1 0 0-4.16h-4.16a2.08 2.08 0 1 0 0 4.16z"/></g><g><path d="M18.86 50.2H14.7a2.08 2.08 0 1 0 0 4.16h4.16a2.08 2.08 0 1 0 0-4.16z"/></g><g><path d="M48.12 29.4h4.16a2.08 2.08 0 1 0 0-4.16h-4.16a2.08 2.08 0 1 0 0 4.16z"/></g></g></g></svg>