<svg xmlns="http://www.w3.org/2000/svg" width="49" height="49" viewBox="0 0 49 49"><g><g><path fill="#ec6568" d="M24.507 32.156a3.062 3.062 0 0 0-3.063 3.055 3.061 3.061 0 0 0 3.063 3.051 3.06 3.06 0 0 0 3.061-3.051 3.06 3.06 0 0 0-3.061-3.055zm-.005-21.411c-1.755 0-3.083.915-3.083 2.395v13.566c0 1.481 1.328 2.394 3.083 2.394 1.711 0 3.082-.951 3.082-2.394V13.14c0-1.444-1.37-2.395-3.082-2.395zm.003 33.671c-10.997 0-19.911-8.914-19.911-19.911 0-10.997 8.914-19.911 19.911-19.911 10.997 0 19.911 8.914 19.911 19.911 0 10.997-8.914 19.911-19.911 19.911zM24.5 0C10.97 0 0 10.97 0 24.5 0 38.032 10.97 49 24.5 49 38.032 49 49 38.033 49 24.5 49 10.97 38.032 0 24.5 0z"/></g></g></svg>