<svg xmlns="http://www.w3.org/2000/svg" width="36" height="36" viewBox="0 0 36 36"><g><g><g><path fill="#0069a3" d="M32.863 34.725h-21.51c-.99 0-1.793-.802-1.793-1.79v-6.567h25.096v6.566c0 .99-.803 1.791-1.793 1.791zM2.39 20.381v-.588h6.588a2.89 2.89 0 0 0-.552 1.176H2.988a.593.593 0 0 1-.598-.588zm1.195-2.978H7.16v1.175H3.585zm.598-5.977h2.39v4.771h-2.39zm2.977-2.39v1.185H3.585V9.035zm15.545-1.794v.588H2.39v-.588zM1.195 4.7l11.348-3.407L23.89 4.699v1.348H1.195zM21.5 10.22h-3.575V9.035H21.5zm-.587 5.976h-2.39v-4.771h2.39zm-2.988 2.381v-1.175H21.5v1.175zm-3.595-8.357h-3.575V9.035h3.575zm-2.977 1.205h2.39v4.771h-2.39zm-.598 7.152v-1.175h3.575v1.175zm5.975-9.543v1.791c0 .33.268.597.598.597V16.2a.597.597 0 0 0-.598.597v1.791h-1.195v-1.791a.597.597 0 0 0-.597-.597v-4.777c.33 0 .597-.267.597-.597v-1.79zM7.768 16.2v-4.777c.33 0 .597-.267.597-.597v-1.79H9.56v1.79c0 .33.268.597.598.597V16.2a.597.597 0 0 0-.598.597v1.791H8.365v-1.791a.597.597 0 0 0-.597-.597zm26.888 8.973H9.56v-1.794h25.096zm0-3.594v.595H9.56v-.595a1.79 1.79 0 0 1 1.793-1.786h21.51c.99 0 1.793.8 1.793 1.786zm-1.793-2.986H22.705V16.8a.598.598 0 0 0-.597-.597v-4.78c.33 0 .597-.268.597-.598V9.033h.598c.33 0 .597-.268.597-.598V7.24h.598c.33 0 .597-.267.597-.597v-2.39a.597.597 0 0 0-.426-.573L12.72.095a.597.597 0 0 0-.343 0L.426 3.68A.598.598 0 0 0 0 4.253v2.39c0 .33.268.597.598.597h.597v1.195c0 .33.268.598.598.598h.597v1.792c0 .33.268.598.598.598v4.78a.598.598 0 0 0-.598.597v1.793h-.597a.598.598 0 0 0-.598.597v1.195c0 .99.803 1.793 1.793 1.793h5.377v10.755a2.991 2.991 0 0 0 2.988 2.988h21.51a2.991 2.991 0 0 0 2.988-2.988V21.58a2.991 2.991 0 0 0-2.988-2.987z"/></g><g><path fill="#facc5f" d="M30.269 32.034a.595.595 0 0 0-.798 0 1.191 1.191 0 0 1-1.659-.052 1.197 1.197 0 0 1 0-1.664 1.191 1.191 0 0 1 1.66-.052c.226.205.57.205.797 0a1.19 1.19 0 0 1 1.434-.13 1.197 1.197 0 0 1-.64 2.21 1.186 1.186 0 0 1-.794-.312zm.801-3.274c-.42 0-.833.113-1.195.326a2.367 2.367 0 0 0-1.195-.326 2.39 2.39 0 0 0 0 4.78c.42 0 .833-.113 1.195-.326.362.213.775.326 1.195.326a2.39 2.39 0 0 0 0-4.78z"/></g><g><path fill="#facc5f" d="M10.76 28.76h2.39v1.195h-2.39z"/></g><g><path fill="#facc5f" d="M10.76 31.15h5.975v1.195H10.76z"/></g><g><path fill="#facc5f" d="M24.5 13.215h3.585v1.195H26.89l1.793 2.39 1.792-2.39H29.28v-1.792a.598.598 0 0 0-.597-.598H24.5z"/></g><g><path fill="#facc5f" d="M3.59 26.37h1.195l-1.792-2.39L1.2 26.37h1.195v1.793c0 .33.268.597.598.597h3.585v-1.195H3.59z"/></g></g></g></svg>