<svg xmlns="http://www.w3.org/2000/svg" width="27" height="30" viewBox="0 0 27 30"><g><g><g><path fill="#facc5f" d="M13.1 29.432a1.64 1.64 0 1 0 0-3.282 1.64 1.64 0 0 0 0 3.282z"/></g><g><path fill="#facc5f" d="M23.99 29.432a1.64 1.64 0 1 0 0-3.282 1.64 1.64 0 0 0 0 3.282z"/></g><g><path fill="#facc5f" d="M2.2 29.432a1.64 1.64 0 1 0 0-3.282 1.64 1.64 0 0 0 0 3.282z"/></g><g><path fill="#0069a3" d="M24.114 19.791a.753.753 0 0 1-.759.752H2.857a.752.752 0 0 1-.753-.752v-4.223c0-.416.337-.752.753-.752h20.498c.417 0 .76.336.76.752zm0-11.074v4.223a.753.753 0 0 1-.759.752H2.857a.752.752 0 0 1-.753-.752V8.717c0-.416.337-.752.753-.752h20.498c.417 0 .76.336.76.752zM2.098 1.87c0-.417.337-.755.753-.755H23.35c.417 0 .76.338.76.755v4.238a.76.76 0 0 1-.76.76H2.857a.755.755 0 0 1-.753-.76V1.869zm23.125-.002A1.87 1.87 0 0 0 23.355 0H2.857A1.87 1.87 0 0 0 .99 1.867v4.231c0 .508.208.973.539 1.31-.33.337-.539.802-.539 1.31v4.231c0 .508.208.973.539 1.31-.33.337-.539.802-.539 1.31V19.8a1.87 1.87 0 0 0 1.867 1.867h20.498a1.87 1.87 0 0 0 1.868-1.867v-4.23c0-.509-.209-.974-.54-1.31.331-.338.54-.803.54-1.311v-4.23c0-.509-.209-.974-.54-1.31.331-.338.54-.803.54-1.311z"/></g><g><path fill="#facc5f" d="M12.857 4.534h6.919a.56.56 0 0 0 .557-.557.56.56 0 0 0-.557-.557h-6.919a.56.56 0 0 0-.557.557.56.56 0 0 0 .557.557z"/></g><g><path fill="#facc5f" d="M7.211 4.642a.661.661 0 1 0 0-1.322.661.661 0 0 0 0 1.322z"/></g><g><path fill="#facc5f" d="M12.857 11.384h6.919a.56.56 0 0 0 .557-.557.56.56 0 0 0-.557-.557h-6.919a.56.56 0 0 0-.557.557.56.56 0 0 0 .557.557z"/></g><g><path fill="#facc5f" d="M19.776 17.13h-6.919a.56.56 0 0 0-.557.557.56.56 0 0 0 .557.557h6.919a.56.56 0 0 0 .557-.557.56.56 0 0 0-.557-.557z"/></g><g><path fill="#facc5f" d="M7.211 11.502a.661.661 0 1 0 0-1.322.661.661 0 0 0 0 1.322z"/></g><g><path fill="#facc5f" d="M7.211 18.352a.661.661 0 1 0 0-1.322.661.661 0 0 0 0 1.322z"/></g><g><path fill="#0069a3" d="M23.988 28.874c-.6 0-1.09-.49-1.09-1.09 0-.6.49-1.09 1.09-1.09.6 0 1.09.49 1.09 1.09 0 .6-.49 1.09-1.09 1.09zm-10.886 0c-.6 0-1.09-.49-1.09-1.09 0-.6.49-1.09 1.09-1.09.6 0 1.09.49 1.09 1.09 0 .6-.49 1.09-1.09 1.09zm-10.898 0c-.6 0-1.09-.49-1.09-1.09 0-.6.49-1.09 1.09-1.09.6 0 1.09.49 1.09 1.09 0 .6-.496 1.09-1.09 1.09zm21.784-3.282a2.206 2.206 0 0 0-2.125 1.641h-6.636a2.205 2.205 0 0 0-1.568-1.567v-1.739a.56.56 0 0 0-.557-.557.56.56 0 0 0-.557.557v1.739a2.205 2.205 0 0 0-1.567 1.567H4.322a2.195 2.195 0 0 0-2.124-1.64A2.2 2.2 0 0 0 0 27.79a2.2 2.2 0 0 0 2.198 2.198 2.206 2.206 0 0 0 2.124-1.64h6.656a2.195 2.195 0 0 0 4.249 0h6.642a2.195 2.195 0 0 0 2.125 1.64 2.2 2.2 0 0 0 2.198-2.198 2.205 2.205 0 0 0-2.204-2.198z"/></g></g></g></svg>