<svg xmlns="http://www.w3.org/2000/svg" width="36" height="36" viewBox="0 0 36 36"><g><g><g><path fill="#facc5f" d="M20.837 6.285a.804.804 0 0 1 0 1.605.804.804 0 0 1 0-1.605zm1.858.802a1.86 1.86 0 0 0-1.858-1.857 1.86 1.86 0 0 0-1.857 1.857 1.86 1.86 0 0 0 1.857 1.858 1.86 1.86 0 0 0 1.858-1.858z"/></g><g><path fill="#0069a3" d="M10.708 31.984c.265-2.073 1.02-2.738 1.39-2.944l.4.401-.618.62a.528.528 0 0 0 .372.901c.135 0 .269-.052.372-.155l.618-.62.402.403c-.2.365-.86 1.127-2.936 1.394zm6.448-17.852c.406-.91.581-1.9.524-2.88l3.754 2.88zm-5.612 2.578a5.062 5.062 0 0 1-3.605-1.49 5.103 5.103 0 0 1 0-7.21 5.062 5.062 0 0 1 3.605-1.49c1.363 0 2.643.53 3.604 1.49a5.103 5.103 0 0 1 0 7.21 5.062 5.062 0 0 1-3.604 1.49zm-9.59 5.884a.524.524 0 0 1-.746 0 .528.528 0 0 1 0-.745l5.935-5.936.05.053c.235.234.486.447.75.638zm21.705-11.98v3.518h-.48l-1.897-1.452zm8.905-2.723a.49.49 0 0 1 .692 0l1.535 1.54c.19.19.19.502 0 .693l-1.177 1.181-2.228-2.233zm-1.926 1.927l2.226 2.233-.741.744-2.226-2.233zM14.733 30.185l-2.227-2.233.742-.744 2.226 2.233zm1.496-1.49l-2.233-2.233 15.146-15.155 2.232 2.234zm17.555 3.409c0 .19-.155.345-.345.345h-2.848v-3.867h2.848c.19 0 .345.155.345.345zm-5.302-3.522h1.064v3.867h-1.064zm-3.768.345c0-.19.156-.345.347-.345h2.376v3.867H25.06a.346.346 0 0 1-.347-.345zM35.547 10.87a1.547 1.547 0 0 0 0-2.185l-1.54-1.54a1.547 1.547 0 0 0-2.186 0l-2.22 2.22V6.769a.527.527 0 1 0-1.055 0v3.653l-3.832 3.832v-10a.527.527 0 0 0-.527-.527h-8.438a.527.527 0 1 0 0 1.054h7.91v4.436l-3.232 2.81-3.04-2.326a6.112 6.112 0 0 0-1.493-2.435 6.1 6.1 0 0 0-3.555-1.747V4.78h1.16a.527.527 0 1 0 0-1.054H11.81a.527.527 0 0 0-.527.527v1.219a6.1 6.1 0 0 0-3.832 1.55V1.054h21.094V4.5a.527.527 0 1 0 1.054 0V.527A.527.527 0 0 0 29.073 0H6.925a.527.527 0 0 0-.528.527v7.715a6.172 6.172 0 0 0 0 6.746v.18L.462 21.102a1.584 1.584 0 0 0 0 2.237c.309.308.714.462 1.12.462.404 0 .81-.154 1.118-.462l3.698-3.698v9.573a.527.527 0 1 0 1.054 0V18.587l1.426-1.426a6.14 6.14 0 0 0 2.666.604 6.11 6.11 0 0 0 5.008-2.578h7.228l-3.55 3.55H10.055a.527.527 0 1 0 0 1.054h9.122l-1.29 1.289h-7.832a.527.527 0 1 0 0 1.054h6.778l-1.289 1.29h-5.49a.527.527 0 1 0 0 1.054h4.436l-1.29 1.29h-3.145a.527.527 0 1 0 0 1.054h2.09l-.513.514a.872.872 0 0 0-.21.889c-.652.434-1.523 1.452-1.784 3.833-.03.272.066.54.26.735a.9.9 0 0 0 .737.261c2.38-.26 3.4-1.131 3.833-1.783a.869.869 0 0 0 .89-.21l6.582-6.583h3.583a.527.527 0 1 0 0-1.055h-2.528l1.289-1.289h1.24a.527.527 0 1 0 0-1.054h-.186l3.209-3.21v9.657h-3.487c-.772 0-1.4.628-1.4 1.4v3.177c0 .772.628 1.4 1.4 1.4h3.487v1.441H7.452v-3.41a.527.527 0 1 0-1.055 0v3.938c0 .291.237.527.528.527h22.148a.527.527 0 0 0 .527-.527v-1.97h3.839c.772 0 1.4-.627 1.4-1.399v-3.177c0-.772-.628-1.4-1.4-1.4H29.6v-10.71z"/></g></g></g></svg>