<svg xmlns="http://www.w3.org/2000/svg" width="36" height="36" viewBox="0 0 36 36"><g><g><g><path fill="#facc5f" d="M18 11.4A4.2 4.2 0 1 1 18 3a4.2 4.2 0 0 1 0 8.4zm0-9.6a5.4 5.4 0 1 0 0 10.8 5.4 5.4 0 0 0 0-10.8z"/></g><g><path fill="#facc5f" d="M17.4 6.6a.6.6 0 0 1 0-1.2zm1.8 1.8a.6.6 0 0 1-.6.6V7.8a.6.6 0 0 1 .6.6zm0-2.4h1.2a1.8 1.8 0 0 0-1.8-1.8v-.6h-1.2v.6a1.8 1.8 0 0 0 0 3.6V9a.6.6 0 0 1-.6-.6h-1.2a1.8 1.8 0 0 0 1.8 1.8v.6h1.2v-.6a1.8 1.8 0 0 0 0-3.6V5.4a.6.6 0 0 1 .6.6z"/></g><g><path fill="#0069a3" d="M4.2 8.4h2.4v1.2L9 7.8 6.6 6v1.2h-3a.6.6 0 0 0-.6.6v5.4h1.2z"/></g><g><path fill="#0069a3" d="M30.6 10.8h-1.2l1.8 2.4 1.8-2.4h-1.2v-3a.6.6 0 0 0-.6-.6H27v1.2h3.6z"/></g><g><path fill="#0069a3" d="M7.2 16.2a7.196 7.196 0 0 0-6 3.229V16.2a.6.6 0 0 1 .6-.6h10.8a.6.6 0 0 1 .6.6v3.229a7.196 7.196 0 0 0-6-3.229zm6 15h-12v-3.829a7.189 7.189 0 0 0 12 0zm-.6 3.6H1.8a.6.6 0 0 1-.6-.6v-1.8h12v1.8a.6.6 0 0 1-.6.6zM9.785 22.495c.269-.453.412-.969.415-1.495a3 3 0 0 0-6 0c.003.526.146 1.042.415 1.495A3.586 3.586 0 0 0 2.4 25.8v1.184a6 6 0 1 1 9.6 0V25.8a3.586 3.586 0 0 0-2.215-3.305zm.013 6.305c-1.64.8-3.556.8-5.196 0m.896-5.334a2.977 2.977 0 0 0 3.404 0A2.389 2.389 0 0 1 10.8 25.8v1.8H3.6v-1.8a2.389 2.389 0 0 1 1.898-2.334zM7.2 22.8a1.8 1.8 0 1 1 0-3.6 1.8 1.8 0 0 1 0 3.6zm5.4-8.4H1.8A1.8 1.8 0 0 0 0 16.2v18A1.8 1.8 0 0 0 1.8 36h10.8a1.8 1.8 0 0 0 1.8-1.8v-18a1.8 1.8 0 0 0-1.8-1.8z"/></g><g><path fill="#0069a3" d="M6 33h2.4v1.2H6z"/></g><g><path fill="#0069a3" d="M28.8 16.2a7.196 7.196 0 0 0-6 3.229V16.2a.6.6 0 0 1 .6-.6h10.8a.6.6 0 0 1 .6.6v3.229a7.196 7.196 0 0 0-6-3.229zm6 15h-12v-3.829a7.189 7.189 0 0 0 12 0zm-.6 3.6H23.4a.6.6 0 0 1-.6-.6v-1.8h12v1.8a.6.6 0 0 1-.6.6zM31.8 21a3 3 0 0 0-6 0c.003.526.146 1.042.415 1.495A3.586 3.586 0 0 0 24 25.8v1.184a6 6 0 1 1 9.6 0V25.8a3.586 3.586 0 0 0-2.215-3.305c.269-.453.412-.969.415-1.495zm-.402 7.8c-1.64.8-3.556.8-5.196 0m.896-5.334a2.977 2.977 0 0 0 3.404 0A2.389 2.389 0 0 1 32.4 25.8v1.8h-7.2v-1.8a2.389 2.389 0 0 1 1.898-2.334zM28.8 22.8a1.8 1.8 0 1 1 0-3.6 1.8 1.8 0 0 1 0 3.6zm5.4-8.4H23.4a1.8 1.8 0 0 0-1.8 1.8v18a1.8 1.8 0 0 0 1.8 1.8h10.8a1.8 1.8 0 0 0 1.8-1.8v-18a1.8 1.8 0 0 0-1.8-1.8z"/></g><g><path fill="#0069a3" d="M27.6 33H30v1.2h-2.4z"/></g><g><path fill="#facc5f" d="M18 13.2a6 6 0 1 1 6-6 6.006 6.006 0 0 1-6 6zm7.2-6a7.2 7.2 0 1 0-7.2 7.2 7.208 7.208 0 0 0 7.2-7.2z"/></g></g></g></svg>