<svg xmlns="http://www.w3.org/2000/svg" width="36" height="36" viewBox="0 0 36 36"><g><g><path fill="#0069a3" d="M33.6 34.8h-4.8a.6.6 0 0 1-.6-.6v-.6h6v.6a.6.6 0 0 1-.6.6zm-4.8-9h4.8a.6.6 0 0 1 .6.6v6h-6v-6a.6.6 0 0 1 .6-.6zm-10.8-3a1.2 1.2 0 1 1 0-2.4 1.2 1.2 0 0 1 0 2.4zm4.2 9.6h-8.4V27h8.4zm-3.6 2.4h-1.2v-1.2h1.2zM9 27v4.8H1.8V27zm-7.8 6.6V33h8.4v.6zm5.4-16.8V6.693l11.1 6.426a.601.601 0 0 0 .6 0l11.1-6.426V16.8zm3.6-9.41L7.8 6h2.4zM21.6 1.2v2.4a.6.6 0 0 0 .6.6h2.4v3.886L21.985 9.6H17.4v1.2h2.512L18 11.907 16.088 10.8h.112V9.6h-2.185L11.4 8.086V1.2zm1.2.848l.952.952H22.8zM28.203 6L25.8 7.39V6zM33.6 24.6h-1.8v-3a.6.6 0 0 0-.6-.6H20.315a2.394 2.394 0 0 0-1.715-1.715V18H30a.6.6 0 0 0 .6-.6v-12a.6.6 0 0 0-.6-.6h-4.2V3.6a.6.6 0 0 0-.176-.424l-3-3A.6.6 0 0 0 22.2 0H10.8a.6.6 0 0 0-.6.6v4.2H6a.6.6 0 0 0-.6.6v12a.6.6 0 0 0 .6.6h11.4v1.285A2.394 2.394 0 0 0 15.685 21H4.8a.6.6 0 0 0-.6.6v4.2H1.8A1.2 1.2 0 0 0 .6 27v4.8a.6.6 0 0 0-.6.6v1.2a1.2 1.2 0 0 0 1.2 1.2h8.4a1.2 1.2 0 0 0 1.2-1.2v-1.2a.6.6 0 0 0-.6-.6V27A1.2 1.2 0 0 0 9 25.8H5.4v-3.6h10.285c.219.84.875 1.496 1.715 1.715V25.8h-3.6a1.2 1.2 0 0 0-1.2 1.2v5.4a1.2 1.2 0 0 0 1.2 1.2h2.4v1.2h-1.8V36h7.2v-1.2h-1.8v-1.2h2.4a1.2 1.2 0 0 0 1.2-1.2V27a1.2 1.2 0 0 0-1.2-1.2h-3.6v-1.885a2.394 2.394 0 0 0 1.715-1.715H30.6v2.4h-1.8a1.8 1.8 0 0 0-1.8 1.8v7.8a1.8 1.8 0 0 0 1.8 1.8h4.8a1.8 1.8 0 0 0 1.8-1.8v-7.8a1.8 1.8 0 0 0-1.8-1.8z"/></g><g><g><path fill="#facc5f" d="M12.6 2.4h3v1.2h-3z"/></g><g><path fill="#facc5f" d="M12.6 4.8h3V6h-3z"/></g><g><path fill="#facc5f" d="M12.6 7.2h6v1.2h-6z"/></g><g><path fill="#facc5f" d="M7.8 12h2.4v1.2H7.8z"/></g><g><path fill="#facc5f" d="M7.8 14.4H12v1.2H7.8z"/></g><g><path fill="#facc5f" d="M16.8 4.8h6.6V6h-6.6z"/></g><g><path fill="#facc5f" d="M16.8 2.4h3.6v1.2h-3.6z"/></g></g></g></svg>