<svg xmlns="http://www.w3.org/2000/svg" width="36" height="36" viewBox="0 0 36 36"><g><g><g><path fill="#facc5f" d="M26.288 28.155c.99 0 1.792.803 1.792 1.793a.598.598 0 0 0 1.195 0 2.988 2.988 0 1 0-2.987 2.987.598.598 0 0 0 0-1.195 1.793 1.793 0 0 1 0-3.585z"/></g><g><path fill="#0069a3" d="M34.665 34.745H32.94a2.404 2.404 0 0 1 1.725-1.725zm-16.74 0V33.02c.84.22 1.497.88 1.715 1.725zm0-9.57h1.715a2.39 2.39 0 0 1-1.715 1.715zm15.015 0h1.725v1.715a2.397 2.397 0 0 1-1.725-1.715zm2.313-1.195h-5.378a.598.598 0 0 0 0 1.195h1.846a3.585 3.585 0 0 0 2.934 2.934V31.8a3.585 3.585 0 0 0-2.934 2.934H20.86a3.585 3.585 0 0 0-2.934-2.934V28.11a3.585 3.585 0 0 0 2.934-2.934h6.626a.598.598 0 0 0 0-1.195H17.328a.598.598 0 0 0-.598.598v10.755c0 .33.268.597.598.597h17.925c.33 0 .597-.267.597-.597V24.578a.598.598 0 0 0-.597-.598z"/></g><g><path fill="#facc5f" d="M32.263 30.545a.598.598 0 0 0 0-1.195h-1.195a.598.598 0 0 0 0 1.195z"/></g><g><path fill="#facc5f" d="M20.318 29.35a.598.598 0 0 0 0 1.195h1.195a.598.598 0 0 0 0-1.195z"/></g><g><path fill="#facc5f" d="M22.934 13.093l2.987 2.39c.172.13.4.157.598.072.219-.09.364-.301.37-.538v-.598h2.988v6.573a.598.598 0 0 0 1.195 0v-7.17a.598.598 0 0 0-.598-.598h-4.182a.598.598 0 0 0-.598.55l-1.434-1.147 1.434-1.147c.025.31.286.55.598.55h4.182c.99 0 1.793.802 1.793 1.792v7.17a.598.598 0 0 0 1.195 0v-7.17a2.988 2.988 0 0 0-2.988-2.988H26.89v-.597a.597.597 0 0 0-.34-.538.597.597 0 0 0-.598.072l-2.987 2.39a.597.597 0 0 0 0 .932z"/></g><g><path fill="#0069a3" d="M3.585 17.995H21.5v1.185H3.585zm4.78-9.56h2.39v8.355h-2.39zm4.183-7.02l7.767 5.825H4.78zM11.95 16.79V8.435h1.195v8.355zm4.78 0h-2.39V8.435h2.39zm8.365 5.388a.598.598 0 0 0-.597-.598H1.195v-1.195h23.303a.598.598 0 0 0 0-1.195h-1.793v-1.792a.598.598 0 0 0-.597-.598h-1.793v-6.572a.598.598 0 0 0-1.195 0V16.8h-1.195V8.435h4.183a.597.597 0 0 0 .358-1.075L12.906.19a.597.597 0 0 0-.717 0L2.63 7.36a.597.597 0 0 0 .359 1.075H4.78v6.573a.598.598 0 0 0 1.195 0V8.435H7.17V16.8H2.988a.598.598 0 0 0-.598.598v1.792H.598a.598.598 0 0 0-.598.598v2.39c0 .33.268.597.598.597h23.9c.33 0 .597-.267.597-.597z"/></g><g><path fill="#facc5f" d="M12.548 4.255c.329 0 .595.265.595.593a.594.594 0 0 1-.595.592.594.594 0 0 1-.596-.592c0-.328.266-.593.596-.593zm.005 2.39a1.793 1.793 0 1 0 0-3.585 1.793 1.793 0 0 0 0 3.585z"/></g><g><path fill="#facc5f" d="M11.13 27.1a.598.598 0 0 0-.967.465v.598H7.175v-3.585a.598.598 0 0 0-1.195 0v4.182c0 .33.268.598.598.598h4.182a.598.598 0 0 0 .598-.55l1.434 1.147-1.434 1.147a.598.598 0 0 0-.598-.55H6.578c-.99 0-1.793-.802-1.793-1.792v-4.182a.598.598 0 0 0-1.195 0v4.182a2.988 2.988 0 0 0 2.988 2.988h3.585v.597a.597.597 0 0 0 .968.466l2.987-2.39a.597.597 0 0 0 0-.932z"/></g></g></g></svg>