<svg xmlns="http://www.w3.org/2000/svg" width="55" height="36" viewBox="0 0 55 36"><g><g><g><path fill="#0069a3" d="M54.054 25.79c-2.37 0-3.57.464-4.73.913-1.07.414-2.08.805-4.15.805-2.07 0-3.08-.391-4.15-.805-1.16-.449-2.359-.913-4.729-.913-2.368 0-3.567.464-4.726.913-1.069.414-2.078.805-4.147.805-2.068 0-3.078-.391-4.147-.805-1.16-.449-2.36-.913-4.728-.913-2.369 0-3.567.464-4.727.913-1.069.414-2.078.805-4.146.805-2.067 0-3.077-.391-4.145-.805-1.16-.449-2.358-.913-4.725-.913a.804.804 0 0 0 0 1.607c2.067 0 3.076.391 4.145.805 1.159.449 2.357.913 4.725.913 2.368 0 3.567-.464 4.727-.913 1.068-.414 2.078-.805 4.146-.805 2.069 0 3.078.391 4.147.805 1.16.449 2.36.913 4.728.913 2.369 0 3.568-.464 4.727-.913 1.069-.414 2.078-.805 4.146-.805 2.07 0 3.08.391 4.15.805 1.16.449 2.36.913 4.73.913 2.37 0 3.569-.464 4.729-.913 1.07-.414 2.08-.805 4.15-.805a.804.804 0 0 0 0-1.607z"/></g><g><path fill="#0069a3" d="M50.512 30.535a.804.804 0 0 0-1.04-.461l-.146.057c-.484.187-.94.364-1.484.505a.804.804 0 0 0 .404 1.555c.633-.164 1.155-.366 1.66-.562l.145-.056a.804.804 0 0 0 .46-1.038z"/></g><g><path fill="#0069a3" d="M44.637 30.928c-1.714-.061-2.635-.418-3.61-.795-1.16-.449-2.36-.913-4.73-.913-2.368 0-3.566.464-4.726.913-1.068.414-2.078.805-4.146.805-2.069 0-3.079-.391-4.148-.805-1.16-.449-2.359-.913-4.728-.913-2.368 0-3.567.464-4.726.913-.973.377-1.891.732-3.599.795a.804.804 0 1 0 .059 1.606c1.977-.073 3.067-.494 4.12-.902 1.069-.414 2.078-.805 4.146-.805 2.07 0 3.079.391 4.148.805 1.16.449 2.359.913 4.728.913 2.368 0 3.567-.464 4.727-.913 1.068-.414 2.078-.805 4.146-.805 2.07 0 3.08.391 4.15.805 1.055.409 2.147.831 4.132.903a.804.804 0 1 0 .058-1.606z"/></g><g><path fill="#0069a3" d="M36.292 32.66c-2.368 0-3.567.464-4.726.913-1.07.414-2.079.805-4.147.805-2.069 0-3.078-.391-4.148-.805-1.16-.449-2.358-.913-4.727-.913a.804.804 0 0 0 0 1.607c2.068 0 3.078.391 4.147.805 1.16.449 2.36.913 4.728.913 2.369 0 3.567-.464 4.727-.913 1.069-.414 2.078-.805 4.146-.805a.804.804 0 0 0 0-1.607z"/></g><g><path fill="#0069a3" d="M7.015 30.642c-.547-.142-1.006-.32-1.49-.508a.804.804 0 0 0-.582 1.5c.507.195 1.031.398 1.669.564a.803.803 0 1 0 .403-1.556z"/></g><g><path fill="#0069a3" d="M37.958 14.97a12.846 12.846 0 0 0-10.53-5.5c-7.073 0-12.828 5.754-12.828 12.828 0 .305.01.613.032.915a.804.804 0 0 0 1.603-.113 11.41 11.41 0 0 1-.028-.802c0-6.187 5.034-11.22 11.22-11.22 3.668 0 7.112 1.798 9.212 4.811a.804.804 0 0 0 1.319-.919z"/></g><g><path fill="#0069a3" d="M11.107 21.49H5.954a.804.804 0 0 0 0 1.607h5.153a.804.804 0 0 0 0-1.607z"/></g><g><path fill="#0069a3" d="M27.434.02a.804.804 0 0 0-.804.804v5.153a.804.804 0 1 0 1.607 0V.824a.804.804 0 0 0-.803-.804z"/></g><g><path fill="#0069a3" d="M43.176 6.545a.803.803 0 0 0-1.137 0l-3.644 3.644a.803.803 0 1 0 1.137 1.137l3.644-3.644a.803.803 0 0 0 0-1.137z"/></g><g><path fill="#0069a3" d="M21.923 6.913l-.657-1.587a.804.804 0 0 0-1.485.615l.658 1.587a.804.804 0 1 0 1.484-.615z"/></g><g><path fill="#0069a3" d="M44.833 15.086a.804.804 0 0 0-1.05-.435l-1.587.658a.804.804 0 1 0 .615 1.484l1.587-.657c.41-.17.605-.64.435-1.05z"/></g><g><path fill="#0069a3" d="M34.639 4.891a.804.804 0 0 0-1.05.435l-.658 1.587a.804.804 0 0 0 1.485.615l.657-1.587a.804.804 0 0 0-.434-1.05z"/></g><g><path fill="#0069a3" d="M12.658 15.309l-1.587-.658a.803.803 0 1 0-.615 1.485l1.587.657a.8.8 0 0 0 1.05-.434.804.804 0 0 0-.435-1.05z"/></g><g><path fill="#facc5f" d="M5.161 9.77a2.882 2.882 0 0 1 2.763-2.073c.396 0 .786.084 1.158.248.294.13.636.072.871-.146a3.779 3.779 0 0 1 2.573-1.022 3.804 3.804 0 0 1 3.712 2.994zm7.364-4.6a5.362 5.362 0 0 0-3.277 1.123 4.416 4.416 0 0 0-1.324-.203 4.49 4.49 0 0 0-4.484 4.485c0 .443.36.803.804.803h12.883c.443 0 .803-.36.803-.803a5.41 5.41 0 0 0-5.405-5.405z"/></g><g><path fill="#facc5f" d="M36.325 19.357a3.78 3.78 0 0 1 2.572 1.022.804.804 0 0 0 .87.146 2.851 2.851 0 0 1 1.159-.248c1.308 0 2.414.877 2.763 2.074H32.613a3.804 3.804 0 0 1 3.712-2.994zm4.6-.687c-.45 0-.893.068-1.323.203a5.362 5.362 0 0 0-3.277-1.123 5.41 5.41 0 0 0-5.405 5.405c0 .443.36.803.804.803h12.883c.443 0 .803-.36.803-.803a4.49 4.49 0 0 0-4.484-4.485z"/></g></g></g></svg>