<svg xmlns="http://www.w3.org/2000/svg" width="36" height="36" viewBox="0 0 36 36"><g><g><g><path fill="#0069a3" d="M4.62 31.378a4.42 4.42 0 0 1 0-6.236l4.252-4.252a4.416 4.416 0 0 1 6.232 0 4.413 4.413 0 0 1 0 6.236l-4.248 4.252a4.42 4.42 0 0 1-6.236 0zm2.016-12.724l-4.252 4.252c-2.952 2.952-2.952 7.756 0 10.708s7.756 2.952 10.708 0l4.252-4.252c2.952-2.952 2.952-7.756 0-10.708s-7.756-2.952-10.708 0z"/></g><g><path fill="#0069a3" d="M20.894 8.876l4.255-4.251a4.412 4.412 0 0 1 6.237 0 4.412 4.412 0 0 1 0 6.237l-4.255 4.255a4.412 4.412 0 0 1-6.237-6.24zm2.011-6.492l-4.248 4.252c-2.956 2.952-2.956 7.756 0 10.708 2.952 2.952 7.756 2.952 10.708 0l4.248-4.248c2.956-2.952 2.956-7.756 0-10.712-2.952-2.952-7.756-2.952-10.708 0z"/></g><g><path fill="#facc5f" d="M22.797 15.882l-6.916 6.912a1.89 1.89 0 0 1-2.676 0 1.89 1.89 0 0 1 0-2.676l6.912-6.916a1.902 1.902 0 0 1 2.68 0c.736.74.736 1.94 0 2.68z"/></g><g><g><path fill="#0069a3" d="M11.166 11.166c-.2.199-.523.199-.722 0L7.84 8.56a.51.51 0 1 1 .722-.722l2.605 2.605c.199.2.199.522 0 .722z"/></g><g><path fill="#0069a3" d="M14.144 9.801a.51.51 0 0 1-.584-.423l-.583-3.637a.51.51 0 1 1 1.007-.162l.583 3.637a.51.51 0 0 1-.423.585z"/></g><g><path fill="#0069a3" d="M9.801 14.144a.51.51 0 0 0-.423-.584l-3.637-.583a.51.51 0 1 0-.162 1.007l3.637.583a.51.51 0 0 0 .585-.423z"/></g><g><path fill="#0069a3" d="M24.83 24.83c.199-.2.522-.2.721 0l2.605 2.604a.51.51 0 1 1-.722.722L24.83 25.55a.51.51 0 0 1 0-.722z"/></g><g><path fill="#0069a3" d="M21.85 26.197a.51.51 0 0 1 .584.422l.583 3.637a.51.51 0 1 1-1.007.162l-.583-3.637a.51.51 0 0 1 .422-.584z"/></g><g><path fill="#0069a3" d="M26.197 21.86a.51.51 0 0 0 .422.584l3.637.583a.51.51 0 1 0 .162-1.007l-3.637-.583a.51.51 0 0 0-.584.422z"/></g></g></g></g></svg>