<svg xmlns="http://www.w3.org/2000/svg" width="71" height="71" viewBox="0 0 71 71"><g><g><g><path d="M23.949 54.593a1.444 1.444 0 0 0-.207-.498 1.325 1.325 0 0 0-.381-.382 1.365 1.365 0 0 0-.498-.206 1.362 1.362 0 0 0-.8.079 1.403 1.403 0 0 0-.62.509 1.34 1.34 0 0 0-.206.498 1.363 1.363 0 0 0 .207 1.037 1.324 1.324 0 0 0 .381.382 1.394 1.394 0 0 0 .768.234 1.362 1.362 0 0 0 .528-.106 1.365 1.365 0 0 0 .749-.749 1.397 1.397 0 0 0 .079-.798z"/></g><g><path d="M59.452 59.926l-21.456 7.545a1.74 1.74 0 0 0-.12.048c-2.988 1.349-5.828.541-6.941.116-4.208-1.86-6.453-3.13-8.094-4.06-2.28-1.292-3.38-1.915-6.484-2.166V50.382c1.321-2.127 3.883-4.304 6.646-4.304 4.737 0 6.745 3.026 6.824 3.148.17.272.432.477.74.58l11.078 3.693c1.769.652 2.704 2.14 2.274 3.624a2.659 2.659 0 0 1-1.29 1.6 2.743 2.743 0 0 1-2.047.241l-12.489-3.887a1.399 1.399 0 0 0-1.75.892c-.232.72.174 1.49.908 1.719l12.51 3.893.04.012a5.552 5.552 0 0 0 4.184-.478 5.387 5.387 0 0 0 2.701-3.576l10.466-2.847c1.512-.507 3.496-.69 4.38 1.308.914 2.346-1.463 3.637-2.08 3.926zm-45.883 3.251h-2.493V51.206h2.493zm-5.281 2.551h-5.5V51.206h5.5zm55.833-10.743a1.304 1.304 0 0 0-.017-.04c-1.283-2.95-4.292-4.039-7.853-2.844l-9.711 2.637c-.562-1.67-1.962-3.09-3.943-3.813a1.642 1.642 0 0 0-.036-.012l-10.676-3.559c-.888-1.128-3.671-4.014-8.882-4.014-3.642 0-6.864 2.454-8.707 5.128H1.394c-.77 0-1.394.613-1.394 1.37v17.26c0 .756.624 1.369 1.394 1.369h8.288c.77 0 1.394-.613 1.394-1.37v-1.181h3.887c.77 0 1.394-.613 1.394-1.37v-.393c2.265.194 3.01.616 5.092 1.794 1.6.907 4.018 2.276 8.374 4.2l.061.025c.836.323 2.47.83 4.485.83 1.402 0 2.99-.246 4.618-.97l21.466-7.55c.038-.013.076-.028.113-.044 2.051-.927 5.108-3.54 3.555-7.453z"/></g><g><path d="M49.77 18.633a1.345 1.345 0 0 0-.08-.26 1.312 1.312 0 0 0-.128-.238 1.325 1.325 0 0 0-.381-.382 1.404 1.404 0 0 0-.497-.206 1.369 1.369 0 0 0-1.039.206 1.324 1.324 0 0 0-.381.382 1.404 1.404 0 0 0-.234.768 1.363 1.363 0 0 0 .106.528 1.365 1.365 0 0 0 .749.749 1.396 1.396 0 0 0 .8.079 1.404 1.404 0 0 0 .878-.588c.05-.075.092-.155.127-.24a1.303 1.303 0 0 0 .106-.528c0-.09-.008-.181-.026-.27z"/></g><g><path d="M68.247 22.029h-5.432V7.419h5.432zm-8.185 0h-2.461V9.986h2.461zm-11.777 5.159c-.51 0-.989-.037-1.436-.102h-.005c-2.973-.432-4.572-2.123-5.1-2.792-.027-.042-.147-.198-.165-.224a1.372 1.372 0 0 0-.758-.631l-10.945-3.717c-1.746-.656-2.67-2.152-2.246-3.645v-.003l.002-.003a2.665 2.665 0 0 1 1.272-1.605 2.662 2.662 0 0 1 2.022-.242l12.332 3.91a1.376 1.376 0 1 0 .832-2.626l-9.809-3.11-.085-.086-.003-.002-5.078-5.081 4.365-1.564.047-.018.015-.006a1.31 1.31 0 0 0 .055-.024c2.951-1.356 5.756-.544 6.855-.116 4.155 1.87 6.372 3.15 7.993 4.084 2.252 1.3 3.337 1.926 6.403 2.18v11.092c-1.305 2.14-3.835 4.33-6.563 4.33zm-5.854 3.534a6.027 6.027 0 0 1-.879-2.865 10.7 10.7 0 0 0 2.428 1.316zm-13.495-8.416l.036.013 2.753.934a5.068 5.068 0 0 1-1.37 2.492 5.1 5.1 0 0 1-7.204 0 5.095 5.095 0 0 1 1.66-8.307c.254 2.113 1.777 3.997 4.125 4.868zm8.369 13.546a8.743 8.743 0 0 0-10.24 0L13.059 21.838a8.674 8.674 0 0 0 1.655-5.124c0-1.867-.58-3.644-1.655-5.123l3.14-3.143a8.662 8.662 0 0 0 5.121 1.657c1.866 0 3.642-.581 5.12-1.657l2.978 2.98a5.43 5.43 0 0 0-1.853.632 5.397 5.397 0 0 0-2.243 2.37 7.842 7.842 0 0 0-4.118 2.168c-3.06 3.061-3.06 8.042 0 11.103a7.82 7.82 0 0 0 5.548 2.296 7.82 7.82 0 0 0 5.549-2.296 7.821 7.821 0 0 0 2.041-3.553l4.648 1.578a8.797 8.797 0 0 0 1.458 6.98zm-5.12 5.112l-3.137-3.13a6.003 6.003 0 0 1 6.273 0zm-21.11-21.12l-3.137-3.135 3.138-3.134c.576.932.885 2.009.885 3.134a5.931 5.931 0 0 1-.885 3.134zm10.25-16.519l3.142 3.147a5.945 5.945 0 0 1-3.142.888 5.943 5.943 0 0 1-3.142-.888zm48.298 1.34H61.44c-.76 0-1.377.616-1.377 1.377V7.23h-3.838c-.76 0-1.376.617-1.376 1.377v.397c-2.238-.196-2.973-.62-5.028-1.806-1.58-.912-3.969-2.29-8.27-4.225l-.06-.025c-1.4-.551-5.07-1.636-8.989.141l-5.539 1.985L22.293.403a1.376 1.376 0 0 0-1.946 0L5.018 15.74c-.496.497-.59 1.357 0 1.948l26.193 26.208c.42.42 1.4.546 1.947 0l13.994-14.002c.364.031.742.048 1.133.048 3.596 0 6.777-2.468 8.597-5.158h12.741c.76 0 1.377-.617 1.377-1.378V6.042c0-.76-.617-1.377-1.377-1.377z"/></g></g></g></svg>