<svg xmlns="http://www.w3.org/2000/svg" width="40" height="41" viewBox="0 0 40 41"><g><g><path fill="#003552" d="M33.45 30.956l-11.792 5.02V21.254zM19.646 4.176l12.516 5.32-12.516 5.318-12.517-5.32zm-2.014 17.078v14.722l-11.792-5.02zM4.029 12.533l11.79 5.016-11.79 9.696zm19.44 5.02l11.791-5.02v14.723zm14.6-9.891L20.437.162a2.014 2.014 0 0 0-1.588 0l-17.628 7.5A1.998 1.998 0 0 0 0 9.5v22c0 .8.48 1.523 1.222 1.837l17.63 7.5a2.006 2.006 0 0 0 1.587-.001l17.63-7.5a1.997 1.997 0 0 0 1.223-1.838V9.5c-.001-.8-.482-1.523-1.224-1.838z"/></g></g></svg>