<svg xmlns="http://www.w3.org/2000/svg" width="63" height="51" viewBox="0 0 63 51"><g><g><g><path fill="#facc5f" d="M36.429 42.887l-6.275-5.06 13.943-.722zm-10.037-.433l1.638-3.947 2.888 2.32zm-1.613-8.388L36.636 35.6l-9.024.467a.934.934 0 0 0-.792.57l-1.498 3.619zm-.54-1.973l-2.658-3.303 15.414 4.955zm23.13 3.01l-28.19-9.062a.902.902 0 0 0-1.008.348.98.98 0 0 0 .038 1.158l4.678 5.815.947 10.781c.053.602.657 1.004 1.206.806l7.593-2.735 3.213 2.589a.894.894 0 0 0 1.096.018l10.692-8.054c.596-.449.433-1.438-.266-1.665z"/></g><g><path fill="#0069a3" d="M50.24 25.693c-2.528 0-4.947.726-7.012 2.078.03-.386.046-.773.046-1.161 0-8.056-6.61-14.61-14.733-14.61-8.124 0-14.733 6.554-14.733 14.61 0 1.212.148 2.403.44 3.56a10.872 10.872 0 0 0-3.46-.565C4.839 29.605 0 34.404 0 40.303 0 46.2 4.84 51 10.788 51h4.068a.92.92 0 0 0 .925-.917.92.92 0 0 0-.925-.917h-4.068c-4.929 0-8.939-3.976-8.939-8.864 0-4.887 4.01-8.863 8.939-8.863 1.595 0 3.163.424 4.533 1.225a.938.938 0 0 0 1.091-.11.92.92 0 0 0 .233-1.032 12.608 12.608 0 0 1-.988-4.912c0-7.045 5.78-12.776 12.884-12.776s12.884 5.731 12.884 12.776c0 1.069-.134 2.132-.398 3.16-.1.388.075.807.421 1.012a.94.94 0 0 0 1.125-.133 10.892 10.892 0 0 1 7.667-3.122c6.016 0 10.91 4.853 10.91 10.82 0 5.965-4.894 10.819-10.91 10.819H19.212a.92.92 0 0 0-.924.917.92.92 0 0 0 .924.917H50.24C57.276 51 63 45.323 63 38.346s-5.724-12.653-12.76-12.653z"/></g><g><path fill="#0069a3" d="M17.056 0C7.65 0 0 7.651 0 17.056a.944.944 0 1 0 1.888 0c0-8.364 6.804-15.168 15.168-15.168a.944.944 0 1 0 0-1.888z"/></g><g><path fill="#0069a3" d="M17.042 12A5.048 5.048 0 0 0 12 17.043a.957.957 0 1 0 1.915 0 3.131 3.131 0 0 1 3.128-3.128.957.957 0 1 0 0-1.915z"/></g><g><path fill="#0069a3" d="M17.052 6C10.958 6 6 10.958 6 17.053a.947.947 0 1 0 1.895 0c0-5.05 4.108-9.158 9.158-9.158a.947.947 0 1 0 0-1.895z"/></g></g></g></svg>