<svg xmlns="http://www.w3.org/2000/svg" width="24" height="24" viewBox="0 0 24 24"><g><g><g><path d="M12.003 18.466a.923.923 0 1 0 0-1.846.923.923 0 0 0 0 1.846z"/></g><g><path d="M12 22.125A10.12 10.12 0 0 1 1.875 12 10.12 10.12 0 0 1 12 1.875 10.12 10.12 0 0 1 22.125 12 10.12 10.12 0 0 1 12 22.125zM12 0C5.368 0 0 5.367 0 12c0 6.632 5.367 12 12 12 6.632 0 12-5.367 12-12 0-6.632-5.367-12-12-12z"/></g><g><path d="M12.002 5.54c-2.036 0-3.692 1.735-3.692 3.868 0 .534.413.967.923.967s.923-.433.923-.967c0-1.066.828-1.934 1.846-1.934 1.018 0 1.846.868 1.846 1.934 0 1.067-.828 1.934-1.846 1.934-.51 0-.923.433-.923.967v2.418c0 .534.413.967.923.967s.923-.433.923-.967v-1.573c1.591-.43 2.77-1.947 2.77-3.746 0-2.133-1.657-3.868-3.693-3.868z"/></g></g></g></svg>