<svg xmlns="http://www.w3.org/2000/svg" width="246" height="246" viewBox="0 0 246 246"><g><g><g><path fill="#fff" d="M151 63.714c-2.204 0-4-1.828-4-4.071h-8c0 5.3 3.356 9.78 8 11.465V80h8v-8.892c4.644-1.686 8-6.164 8-11.465 0-6.734-5.384-12.214-12-12.214-2.204 0-4-1.828-4-4.072 0-2.243 1.796-4.071 4-4.071 2.204 0 4 1.828 4 4.071h8c0-5.3-3.356-9.78-8-11.465V23h-8v8.892a12.184 12.184 0 0 0-8 11.465c0 6.734 5.384 12.214 12 12.214 2.204 0 4 1.829 4 4.072 0 2.243-1.796 4.071-4 4.071z"/></g><g><path fill="#facc5f" d="M238.21 238.074h-15.578v-43.593h15.579zm-38.947 0h-15.579V178.63h15.58zm-38.947-.01h-15.58v-91.138h15.58zm-38.948 0H105.79v-75.286h15.58zm93.474-51.508v51.518h-7.79v-67.37h-31.157v67.37h-7.79V139h-31.158v99.074h-7.79v-83.222H98V246h148v-59.444z"/></g><g><path fill="#facc5f" d="M228.167 163.778c2.173 0 3.944 1.82 3.944 4.055 0 2.235-1.77 4.056-3.944 4.056s-3.945-1.821-3.945-4.056c0-2.234 1.771-4.055 3.945-4.055zm-39.445-8.111c-2.173 0-3.944-1.821-3.944-4.056 0-2.234 1.77-4.055 3.944-4.055s3.945 1.82 3.945 4.055c0 2.235-1.771 4.056-3.945 4.056zm-39.444-32.445c-2.174 0-3.945-1.82-3.945-4.055 0-2.235 1.771-4.056 3.945-4.056 2.173 0 3.944 1.821 3.944 4.056 0 2.234-1.77 4.055-3.944 4.055zm-39.445 16.222c-2.173 0-3.944-1.82-3.944-4.055 0-2.235 1.771-4.056 3.944-4.056 2.174 0 3.945 1.821 3.945 4.056 0 2.234-1.771 4.055-3.945 4.055zm90.723 12.167c0-6.708-5.31-12.167-11.834-12.167-2.288 0-4.406.702-6.216 1.862l-22.093-18.173c.422-1.25.698-2.571.698-3.966 0-6.708-5.31-12.167-11.833-12.167-6.524 0-11.834 5.459-11.834 12.167 0 .166.04.316.048.478l-18.815 7.738c-2.17-2.53-5.31-4.16-8.844-4.16-6.524 0-11.833 5.458-11.833 12.166s5.31 12.167 11.833 12.167c6.524 0 11.834-5.46 11.834-12.167 0-.162-.04-.316-.048-.479l18.815-7.738c2.17 2.531 5.31 4.161 8.844 4.161 2.288 0 4.406-.701 6.216-1.861l22.093 18.173c-.422 1.249-.698 2.571-.698 3.966 0 6.708 5.31 12.167 11.833 12.167 3.53 0 6.67-1.63 8.84-4.161l18.819 7.738c-.008.162-.048.316-.048.478 0 6.708 5.31 12.167 11.834 12.167S240 174.541 240 167.833s-5.31-12.166-11.833-12.166c-3.53 0-6.67 1.63-8.84 4.16l-18.819-7.737c.008-.163.048-.317.048-.479z"/></g><g><path fill="#fff" d="M67.333 79.355v35.71H27.725V83.323h-7.921v45.629c0 3.28-2.666 5.951-5.941 5.951-3.276 0-5.941-2.67-5.941-5.951V80.18c0-5.622 3.826-10.4 9.303-11.621l26.344-5.86V55.19c1.29.219 2.61.357 3.96.357 1.351 0 2.67-.138 3.961-.357v8.079l65.424 3.642a6.222 6.222 0 0 1 5.87 6.217c0 3.433-2.788 6.226-6.214 6.226zm0 158.71H51.49V123h15.843zm-23.764 0H27.725V123H43.57zM31.686 31.735v-7.933c0-8.75 7.104-15.867 15.838-15.867 8.735 0 15.839 7.117 15.839 15.867v7.934c0 8.75-7.104 15.867-15.839 15.867-8.734 0-15.838-7.116-15.838-15.867zm118.824-23.8c24.022 0 43.568 19.581 43.568 43.646 0 24.064-19.546 43.645-43.568 43.645-9.946 0-19.53-3.512-27.227-9.713 4.397-2.405 7.423-7.023 7.423-12.384 0-7.514-5.866-13.724-13.352-14.14l-9.78-.544c-.375-2.317-.633-4.623-.633-6.864 0-24.065 19.547-43.646 43.569-43.646zm0 95.226c28.39 0 51.49-23.14 51.49-51.58C202 23.14 178.9 0 150.51 0c-28.391 0-51.49 23.14-51.49 51.58 0 2.111.174 4.254.451 6.413l-40.06-2.23v-3.436c7.09-4.123 11.883-11.797 11.883-20.585v-7.936C71.294 10.677 60.636 0 47.53 0 34.423 0 23.765 10.677 23.765 23.806v7.936c0 8.788 4.792 16.462 11.882 20.585v4.007L15.51 60.818C6.377 62.849 0 70.812 0 80.18v48.772c0 7.657 6.218 13.887 13.863 13.887 2.135 0 4.135-.528 5.94-1.393V246h55.452V87.29h38.265c9.696 10.078 23.048 15.871 36.99 15.871z"/></g></g></g></svg>