<svg xmlns="http://www.w3.org/2000/svg" width="45" height="47" viewBox="0 0 45 47"><g><g><path fill="#fff" d="M38.212 35.485L24.794 41.24V24.365zM22.503 4.787l14.241 6.099-14.241 6.098-14.242-6.1zm-2.292 19.578v16.874L6.794 35.485zM4.734 14.367l13.416 5.75L4.734 31.232zm22.121 5.746l13.406-5.746v16.856zm16.611-11.33L23.405.187a2.277 2.277 0 0 0-1.806 0L1.54 8.783A2.29 2.29 0 0 0 .15 10.89v25.219a2.29 2.29 0 0 0 1.39 2.107l20.061 8.597a2.268 2.268 0 0 0 1.805-.001l20.061-8.597a2.29 2.29 0 0 0 1.391-2.107V10.89a2.297 2.297 0 0 0-1.392-2.108z"/></g></g></svg>