<svg xmlns="http://www.w3.org/2000/svg" width="189" height="189" viewBox="0 0 189 189"><g><g><g opacity=".32"><path fill="#e5ebef" d="M30 0h159v159H30z"/></g><g opacity=".13"><g opacity=".13"><g opacity=".13"><path fill="#1b8bc8" d="M4.774 38.393a2.39 2.39 0 0 1-2.388 2.394A2.39 2.39 0 0 1 0 38.393 2.39 2.39 0 0 1 2.386 36a2.39 2.39 0 0 1 2.388 2.393"/></g><g opacity=".13"><path fill="#1b8bc8" d="M19.094 38.393a2.39 2.39 0 0 1-2.387 2.394 2.39 2.39 0 0 1-2.387-2.394A2.39 2.39 0 0 1 16.707 36a2.39 2.39 0 0 1 2.387 2.393"/></g><g opacity=".13"><path fill="#1b8bc8" d="M32.224 38.393a2.39 2.39 0 0 1-2.387 2.394 2.39 2.39 0 0 1-2.387-2.394A2.39 2.39 0 0 1 29.837 36a2.39 2.39 0 0 1 2.387 2.393"/></g><g opacity=".13"><path fill="#1b8bc8" d="M46.544 38.393a2.39 2.39 0 0 1-2.388 2.394 2.39 2.39 0 0 1-2.386-2.394A2.39 2.39 0 0 1 44.156 36a2.39 2.39 0 0 1 2.388 2.393"/></g><g opacity=".13"><path fill="#1b8bc8" d="M59.674 38.393a2.39 2.39 0 0 1-2.387 2.394 2.39 2.39 0 0 1-2.387-2.394A2.39 2.39 0 0 1 57.287 36a2.39 2.39 0 0 1 2.387 2.393"/></g><g opacity=".13"><path fill="#1b8bc8" d="M4.774 51.553a2.39 2.39 0 0 1-2.388 2.394A2.39 2.39 0 0 1 0 51.553a2.39 2.39 0 0 1 2.386-2.393 2.39 2.39 0 0 1 2.388 2.393"/></g><g opacity=".13"><path fill="#1b8bc8" d="M19.094 51.553a2.39 2.39 0 0 1-2.387 2.394 2.39 2.39 0 0 1-2.387-2.394 2.39 2.39 0 0 1 2.387-2.393 2.39 2.39 0 0 1 2.387 2.393"/></g><g opacity=".13"><path fill="#1b8bc8" d="M32.224 51.553a2.39 2.39 0 0 1-2.387 2.394 2.39 2.39 0 0 1-2.387-2.394 2.39 2.39 0 0 1 2.387-2.393 2.39 2.39 0 0 1 2.387 2.393"/></g><g opacity=".13"><path fill="#1b8bc8" d="M46.544 51.553a2.39 2.39 0 0 1-2.388 2.394 2.39 2.39 0 0 1-2.386-2.394 2.39 2.39 0 0 1 2.386-2.393 2.39 2.39 0 0 1 2.388 2.393"/></g><g opacity=".13"><path fill="#1b8bc8" d="M59.674 51.553a2.39 2.39 0 0 1-2.387 2.394 2.39 2.39 0 0 1-2.387-2.394 2.39 2.39 0 0 1 2.387-2.393 2.39 2.39 0 0 1 2.387 2.393"/></g><g opacity=".13"><path fill="#1b8bc8" d="M4.774 66.512c0 1.652-1.068 2.992-2.388 2.992C1.07 69.504 0 68.164 0 66.512s1.069-2.992 2.386-2.992c1.32 0 2.388 1.34 2.388 2.992"/></g><g opacity=".13"><path fill="#1b8bc8" d="M19.094 66.512c0 1.652-1.068 2.992-2.387 2.992-1.318 0-2.387-1.34-2.387-2.992s1.069-2.992 2.387-2.992c1.319 0 2.387 1.34 2.387 2.992"/></g><g opacity=".13"><path fill="#1b8bc8" d="M32.224 66.512c0 1.652-1.069 2.992-2.387 2.992-1.319 0-2.387-1.34-2.387-2.992s1.068-2.992 2.387-2.992c1.318 0 2.387 1.34 2.387 2.992"/></g><g opacity=".13"><path fill="#1b8bc8" d="M46.544 66.512c0 1.652-1.069 2.992-2.388 2.992-1.318 0-2.386-1.34-2.386-2.992s1.068-2.992 2.386-2.992c1.32 0 2.388 1.34 2.388 2.992"/></g><g opacity=".13"><path fill="#1b8bc8" d="M59.674 66.512c0 1.652-1.068 2.992-2.387 2.992-1.318 0-2.387-1.34-2.387-2.992s1.069-2.992 2.387-2.992c1.32 0 2.387 1.34 2.387 2.992"/></g><g opacity=".13"><path fill="#1b8bc8" d="M4.774 79.681c0 1.653-1.068 2.993-2.388 2.993C1.07 82.674 0 81.334 0 79.68c0-1.651 1.069-2.991 2.386-2.991 1.32 0 2.388 1.34 2.388 2.991"/></g><g opacity=".13"><path fill="#1b8bc8" d="M19.094 79.681c0 1.653-1.068 2.993-2.387 2.993-1.318 0-2.387-1.34-2.387-2.993 0-1.651 1.069-2.991 2.387-2.991 1.319 0 2.387 1.34 2.387 2.991"/></g><g opacity=".13"><path fill="#1b8bc8" d="M32.224 79.681c0 1.653-1.069 2.993-2.387 2.993-1.319 0-2.387-1.34-2.387-2.993 0-1.651 1.068-2.991 2.387-2.991 1.318 0 2.387 1.34 2.387 2.991"/></g><g opacity=".13"><path fill="#1b8bc8" d="M46.544 79.681c0 1.653-1.069 2.993-2.388 2.993-1.318 0-2.386-1.34-2.386-2.993 0-1.651 1.068-2.991 2.386-2.991 1.32 0 2.388 1.34 2.388 2.991"/></g><g opacity=".13"><path fill="#1b8bc8" d="M59.674 79.681c0 1.653-1.068 2.993-2.387 2.993-1.318 0-2.387-1.34-2.387-2.993 0-1.651 1.069-2.991 2.387-2.991 1.32 0 2.387 1.34 2.387 2.991"/></g><g opacity=".13"><path fill="#1b8bc8" d="M4.774 93.443a2.39 2.39 0 0 1-2.388 2.394A2.39 2.39 0 0 1 0 93.443a2.39 2.39 0 0 1 2.386-2.393 2.39 2.39 0 0 1 2.388 2.393"/></g><g opacity=".13"><path fill="#1b8bc8" d="M19.094 93.443a2.39 2.39 0 0 1-2.387 2.394 2.39 2.39 0 0 1-2.387-2.394 2.39 2.39 0 0 1 2.387-2.393 2.39 2.39 0 0 1 2.387 2.393"/></g><g opacity=".13"><path fill="#1b8bc8" d="M32.224 93.443a2.39 2.39 0 0 1-2.387 2.394 2.39 2.39 0 0 1-2.387-2.394 2.39 2.39 0 0 1 2.387-2.393 2.39 2.39 0 0 1 2.387 2.393"/></g><g opacity=".13"><path fill="#1b8bc8" d="M46.544 93.443a2.39 2.39 0 0 1-2.388 2.394 2.39 2.39 0 0 1-2.386-2.394 2.39 2.39 0 0 1 2.386-2.393 2.39 2.39 0 0 1 2.388 2.393"/></g><g opacity=".13"><path fill="#1b8bc8" d="M59.674 93.443a2.39 2.39 0 0 1-2.387 2.394 2.39 2.39 0 0 1-2.387-2.394 2.39 2.39 0 0 1 2.387-2.393 2.39 2.39 0 0 1 2.387 2.393"/></g><g opacity=".13"><path fill="#1b8bc8" d="M4.774 106.603a2.39 2.39 0 0 1-2.388 2.394A2.39 2.39 0 0 1 0 106.603a2.39 2.39 0 0 1 2.386-2.393 2.39 2.39 0 0 1 2.388 2.393"/></g><g opacity=".13"><path fill="#1b8bc8" d="M19.094 106.603a2.39 2.39 0 0 1-2.387 2.394 2.39 2.39 0 0 1-2.387-2.394 2.39 2.39 0 0 1 2.387-2.393 2.39 2.39 0 0 1 2.387 2.393"/></g><g opacity=".13"><path fill="#1b8bc8" d="M32.224 106.603a2.39 2.39 0 0 1-2.387 2.394 2.39 2.39 0 0 1-2.387-2.394 2.39 2.39 0 0 1 2.387-2.393 2.39 2.39 0 0 1 2.387 2.393"/></g><g opacity=".13"><path fill="#1b8bc8" d="M46.544 106.603a2.39 2.39 0 0 1-2.388 2.394 2.39 2.39 0 0 1-2.386-2.394 2.39 2.39 0 0 1 2.386-2.393 2.39 2.39 0 0 1 2.388 2.393"/></g><g opacity=".13"><path fill="#1b8bc8" d="M59.674 106.603a2.39 2.39 0 0 1-2.387 2.394 2.39 2.39 0 0 1-2.387-2.394 2.39 2.39 0 0 1 2.387-2.393 2.39 2.39 0 0 1 2.387 2.393"/></g><g opacity=".13"><path fill="#1b8bc8" d="M74.004 38.393a2.39 2.39 0 0 1-2.387 2.394 2.39 2.39 0 0 1-2.387-2.394A2.39 2.39 0 0 1 71.617 36a2.39 2.39 0 0 1 2.387 2.393"/></g><g opacity=".13"><path fill="#1b8bc8" d="M74.004 51.553a2.39 2.39 0 0 1-2.387 2.394 2.39 2.39 0 0 1-2.387-2.394 2.39 2.39 0 0 1 2.387-2.393 2.39 2.39 0 0 1 2.387 2.393"/></g><g opacity=".13"><path fill="#1b8bc8" d="M74.004 66.512c0 1.652-1.068 2.992-2.387 2.992-1.318 0-2.387-1.34-2.387-2.992s1.069-2.992 2.387-2.992c1.32 0 2.387 1.34 2.387 2.992"/></g><g opacity=".13"><path fill="#1b8bc8" d="M74.004 79.681c0 1.653-1.068 2.993-2.387 2.993-1.318 0-2.387-1.34-2.387-2.993 0-1.651 1.069-2.991 2.387-2.991 1.32 0 2.387 1.34 2.387 2.991"/></g><g opacity=".13"><path fill="#1b8bc8" d="M74.004 93.443a2.39 2.39 0 0 1-2.387 2.394 2.39 2.39 0 0 1-2.387-2.394 2.39 2.39 0 0 1 2.387-2.393 2.39 2.39 0 0 1 2.387 2.393"/></g><g opacity=".13"><path fill="#1b8bc8" d="M74.004 106.603a2.39 2.39 0 0 1-2.387 2.394 2.39 2.39 0 0 1-2.387-2.394 2.39 2.39 0 0 1 2.387-2.393 2.39 2.39 0 0 1 2.387 2.393"/></g></g><g opacity=".13"><g opacity=".13"><path fill="#1b8bc8" d="M4.774 118.393a2.39 2.39 0 0 1-2.388 2.394A2.39 2.39 0 0 1 0 118.393 2.39 2.39 0 0 1 2.386 116a2.39 2.39 0 0 1 2.388 2.393"/></g><g opacity=".13"><path fill="#1b8bc8" d="M19.094 118.393a2.39 2.39 0 0 1-2.387 2.394 2.39 2.39 0 0 1-2.387-2.394A2.39 2.39 0 0 1 16.707 116a2.39 2.39 0 0 1 2.387 2.393"/></g><g opacity=".13"><path fill="#1b8bc8" d="M32.224 118.393a2.39 2.39 0 0 1-2.387 2.394 2.39 2.39 0 0 1-2.387-2.394A2.39 2.39 0 0 1 29.837 116a2.39 2.39 0 0 1 2.387 2.393"/></g><g opacity=".13"><path fill="#1b8bc8" d="M46.544 118.393a2.39 2.39 0 0 1-2.388 2.394 2.39 2.39 0 0 1-2.386-2.394A2.39 2.39 0 0 1 44.156 116a2.39 2.39 0 0 1 2.388 2.393"/></g><g opacity=".13"><path fill="#1b8bc8" d="M59.674 118.393a2.39 2.39 0 0 1-2.387 2.394 2.39 2.39 0 0 1-2.387-2.394A2.39 2.39 0 0 1 57.287 116a2.39 2.39 0 0 1 2.387 2.393"/></g><g opacity=".13"><path fill="#1b8bc8" d="M4.774 131.553a2.39 2.39 0 0 1-2.388 2.394A2.39 2.39 0 0 1 0 131.553a2.39 2.39 0 0 1 2.386-2.393 2.39 2.39 0 0 1 2.388 2.393"/></g><g opacity=".13"><path fill="#1b8bc8" d="M19.094 131.553a2.39 2.39 0 0 1-2.387 2.394 2.39 2.39 0 0 1-2.387-2.394 2.39 2.39 0 0 1 2.387-2.393 2.39 2.39 0 0 1 2.387 2.393"/></g><g opacity=".13"><path fill="#1b8bc8" d="M32.224 131.553a2.39 2.39 0 0 1-2.387 2.394 2.39 2.39 0 0 1-2.387-2.394 2.39 2.39 0 0 1 2.387-2.393 2.39 2.39 0 0 1 2.387 2.393"/></g><g opacity=".13"><path fill="#1b8bc8" d="M46.544 131.553a2.39 2.39 0 0 1-2.388 2.394 2.39 2.39 0 0 1-2.386-2.394 2.39 2.39 0 0 1 2.386-2.393 2.39 2.39 0 0 1 2.388 2.393"/></g><g opacity=".13"><path fill="#1b8bc8" d="M59.674 131.553a2.39 2.39 0 0 1-2.387 2.394 2.39 2.39 0 0 1-2.387-2.394 2.39 2.39 0 0 1 2.387-2.393 2.39 2.39 0 0 1 2.387 2.393"/></g><g opacity=".13"><path fill="#1b8bc8" d="M4.774 146.512c0 1.652-1.068 2.992-2.388 2.992-1.317 0-2.386-1.34-2.386-2.992s1.069-2.992 2.386-2.992c1.32 0 2.388 1.34 2.388 2.992"/></g><g opacity=".13"><path fill="#1b8bc8" d="M19.094 146.512c0 1.652-1.068 2.992-2.387 2.992-1.318 0-2.387-1.34-2.387-2.992s1.069-2.992 2.387-2.992c1.319 0 2.387 1.34 2.387 2.992"/></g><g opacity=".13"><path fill="#1b8bc8" d="M32.224 146.512c0 1.652-1.069 2.992-2.387 2.992-1.319 0-2.387-1.34-2.387-2.992s1.068-2.992 2.387-2.992c1.318 0 2.387 1.34 2.387 2.992"/></g><g opacity=".13"><path fill="#1b8bc8" d="M46.544 146.512c0 1.652-1.069 2.992-2.388 2.992-1.318 0-2.386-1.34-2.386-2.992s1.068-2.992 2.386-2.992c1.32 0 2.388 1.34 2.388 2.992"/></g><g opacity=".13"><path fill="#1b8bc8" d="M59.674 146.512c0 1.652-1.068 2.992-2.387 2.992-1.318 0-2.387-1.34-2.387-2.992s1.069-2.992 2.387-2.992c1.32 0 2.387 1.34 2.387 2.992"/></g><g opacity=".13"><path fill="#1b8bc8" d="M4.774 159.681c0 1.653-1.068 2.993-2.388 2.993-1.317 0-2.386-1.34-2.386-2.993 0-1.651 1.069-2.991 2.386-2.991 1.32 0 2.388 1.34 2.388 2.991"/></g><g opacity=".13"><path fill="#1b8bc8" d="M19.094 159.681c0 1.653-1.068 2.993-2.387 2.993-1.318 0-2.387-1.34-2.387-2.993 0-1.651 1.069-2.991 2.387-2.991 1.319 0 2.387 1.34 2.387 2.991"/></g><g opacity=".13"><path fill="#1b8bc8" d="M32.224 159.681c0 1.653-1.069 2.993-2.387 2.993-1.319 0-2.387-1.34-2.387-2.993 0-1.651 1.068-2.991 2.387-2.991 1.318 0 2.387 1.34 2.387 2.991"/></g><g opacity=".13"><path fill="#1b8bc8" d="M46.544 159.681c0 1.653-1.069 2.993-2.388 2.993-1.318 0-2.386-1.34-2.386-2.993 0-1.651 1.068-2.991 2.386-2.991 1.32 0 2.388 1.34 2.388 2.991"/></g><g opacity=".13"><path fill="#1b8bc8" d="M59.674 159.681c0 1.653-1.068 2.993-2.387 2.993-1.318 0-2.387-1.34-2.387-2.993 0-1.651 1.069-2.991 2.387-2.991 1.32 0 2.387 1.34 2.387 2.991"/></g><g opacity=".13"><path fill="#1b8bc8" d="M4.774 173.443a2.39 2.39 0 0 1-2.388 2.394A2.39 2.39 0 0 1 0 173.443a2.39 2.39 0 0 1 2.386-2.393 2.39 2.39 0 0 1 2.388 2.393"/></g><g opacity=".13"><path fill="#1b8bc8" d="M19.094 173.443a2.39 2.39 0 0 1-2.387 2.394 2.39 2.39 0 0 1-2.387-2.394 2.39 2.39 0 0 1 2.387-2.393 2.39 2.39 0 0 1 2.387 2.393"/></g><g opacity=".13"><path fill="#1b8bc8" d="M32.224 173.443a2.39 2.39 0 0 1-2.387 2.394 2.39 2.39 0 0 1-2.387-2.394 2.39 2.39 0 0 1 2.387-2.393 2.39 2.39 0 0 1 2.387 2.393"/></g><g opacity=".13"><path fill="#1b8bc8" d="M46.544 173.443a2.39 2.39 0 0 1-2.388 2.394 2.39 2.39 0 0 1-2.386-2.394 2.39 2.39 0 0 1 2.386-2.393 2.39 2.39 0 0 1 2.388 2.393"/></g><g opacity=".13"><path fill="#1b8bc8" d="M59.674 173.443a2.39 2.39 0 0 1-2.387 2.394 2.39 2.39 0 0 1-2.387-2.394 2.39 2.39 0 0 1 2.387-2.393 2.39 2.39 0 0 1 2.387 2.393"/></g><g opacity=".13"><path fill="#1b8bc8" d="M4.774 186.603a2.39 2.39 0 0 1-2.388 2.394A2.39 2.39 0 0 1 0 186.603a2.39 2.39 0 0 1 2.386-2.393 2.39 2.39 0 0 1 2.388 2.393"/></g><g opacity=".13"><path fill="#1b8bc8" d="M19.094 186.603a2.39 2.39 0 0 1-2.387 2.394 2.39 2.39 0 0 1-2.387-2.394 2.39 2.39 0 0 1 2.387-2.393 2.39 2.39 0 0 1 2.387 2.393"/></g><g opacity=".13"><path fill="#1b8bc8" d="M32.224 186.603a2.39 2.39 0 0 1-2.387 2.394 2.39 2.39 0 0 1-2.387-2.394 2.39 2.39 0 0 1 2.387-2.393 2.39 2.39 0 0 1 2.387 2.393"/></g><g opacity=".13"><path fill="#1b8bc8" d="M46.544 186.603a2.39 2.39 0 0 1-2.388 2.394 2.39 2.39 0 0 1-2.386-2.394 2.39 2.39 0 0 1 2.386-2.393 2.39 2.39 0 0 1 2.388 2.393"/></g><g opacity=".13"><path fill="#1b8bc8" d="M59.674 186.603a2.39 2.39 0 0 1-2.387 2.394 2.39 2.39 0 0 1-2.387-2.394 2.39 2.39 0 0 1 2.387-2.393 2.39 2.39 0 0 1 2.387 2.393"/></g><g opacity=".13"><path fill="#1b8bc8" d="M74.004 118.393a2.39 2.39 0 0 1-2.387 2.394 2.39 2.39 0 0 1-2.387-2.394A2.39 2.39 0 0 1 71.617 116a2.39 2.39 0 0 1 2.387 2.393"/></g><g opacity=".13"><path fill="#1b8bc8" d="M74.004 131.553a2.39 2.39 0 0 1-2.387 2.394 2.39 2.39 0 0 1-2.387-2.394 2.39 2.39 0 0 1 2.387-2.393 2.39 2.39 0 0 1 2.387 2.393"/></g><g opacity=".13"><path fill="#1b8bc8" d="M74.004 146.512c0 1.652-1.068 2.992-2.387 2.992-1.318 0-2.387-1.34-2.387-2.992s1.069-2.992 2.387-2.992c1.32 0 2.387 1.34 2.387 2.992"/></g><g opacity=".13"><path fill="#1b8bc8" d="M74.004 159.681c0 1.653-1.068 2.993-2.387 2.993-1.318 0-2.387-1.34-2.387-2.993 0-1.651 1.069-2.991 2.387-2.991 1.32 0 2.387 1.34 2.387 2.991"/></g><g opacity=".13"><path fill="#1b8bc8" d="M74.004 173.443a2.39 2.39 0 0 1-2.387 2.394 2.39 2.39 0 0 1-2.387-2.394 2.39 2.39 0 0 1 2.387-2.393 2.39 2.39 0 0 1 2.387 2.393"/></g><g opacity=".13"><path fill="#1b8bc8" d="M74.004 186.603a2.39 2.39 0 0 1-2.387 2.394 2.39 2.39 0 0 1-2.387-2.394 2.39 2.39 0 0 1 2.387-2.393 2.39 2.39 0 0 1 2.387 2.393"/></g></g><g opacity=".13"><g opacity=".13"><path fill="#1b8bc8" d="M88.774 38.393a2.39 2.39 0 0 1-2.388 2.394A2.39 2.39 0 0 1 84 38.393 2.39 2.39 0 0 1 86.386 36a2.39 2.39 0 0 1 2.388 2.393"/></g><g opacity=".13"><path fill="#1b8bc8" d="M103.094 38.393a2.39 2.39 0 0 1-2.387 2.394 2.39 2.39 0 0 1-2.387-2.394A2.39 2.39 0 0 1 100.707 36a2.39 2.39 0 0 1 2.387 2.393"/></g><g opacity=".13"><path fill="#1b8bc8" d="M116.224 38.393a2.39 2.39 0 0 1-2.387 2.394 2.39 2.39 0 0 1-2.387-2.394A2.39 2.39 0 0 1 113.837 36a2.39 2.39 0 0 1 2.387 2.393"/></g><g opacity=".13"><path fill="#1b8bc8" d="M130.544 38.393a2.39 2.39 0 0 1-2.388 2.394 2.39 2.39 0 0 1-2.386-2.394A2.39 2.39 0 0 1 128.156 36a2.39 2.39 0 0 1 2.388 2.393"/></g><g opacity=".13"><path fill="#1b8bc8" d="M143.674 38.393a2.39 2.39 0 0 1-2.387 2.394 2.39 2.39 0 0 1-2.387-2.394A2.39 2.39 0 0 1 141.287 36a2.39 2.39 0 0 1 2.387 2.393"/></g><g opacity=".13"><path fill="#1b8bc8" d="M88.774 51.553a2.39 2.39 0 0 1-2.388 2.394A2.39 2.39 0 0 1 84 51.553a2.39 2.39 0 0 1 2.386-2.393 2.39 2.39 0 0 1 2.388 2.393"/></g><g opacity=".13"><path fill="#1b8bc8" d="M103.094 51.553a2.39 2.39 0 0 1-2.387 2.394 2.39 2.39 0 0 1-2.387-2.394 2.39 2.39 0 0 1 2.387-2.393 2.39 2.39 0 0 1 2.387 2.393"/></g><g opacity=".13"><path fill="#1b8bc8" d="M116.224 51.553a2.39 2.39 0 0 1-2.387 2.394 2.39 2.39 0 0 1-2.387-2.394 2.39 2.39 0 0 1 2.387-2.393 2.39 2.39 0 0 1 2.387 2.393"/></g><g opacity=".13"><path fill="#1b8bc8" d="M130.544 51.553a2.39 2.39 0 0 1-2.388 2.394 2.39 2.39 0 0 1-2.386-2.394 2.39 2.39 0 0 1 2.386-2.393 2.39 2.39 0 0 1 2.388 2.393"/></g><g opacity=".13"><path fill="#1b8bc8" d="M143.674 51.553a2.39 2.39 0 0 1-2.387 2.394 2.39 2.39 0 0 1-2.387-2.394 2.39 2.39 0 0 1 2.387-2.393 2.39 2.39 0 0 1 2.387 2.393"/></g><g opacity=".13"><path fill="#1b8bc8" d="M88.774 66.512c0 1.652-1.068 2.992-2.388 2.992-1.317 0-2.386-1.34-2.386-2.992s1.069-2.992 2.386-2.992c1.32 0 2.388 1.34 2.388 2.992"/></g><g opacity=".13"><path fill="#1b8bc8" d="M103.094 66.512c0 1.652-1.068 2.992-2.387 2.992-1.318 0-2.387-1.34-2.387-2.992s1.069-2.992 2.387-2.992c1.319 0 2.387 1.34 2.387 2.992"/></g><g opacity=".13"><path fill="#1b8bc8" d="M116.224 66.512c0 1.652-1.069 2.992-2.387 2.992-1.319 0-2.387-1.34-2.387-2.992s1.068-2.992 2.387-2.992c1.318 0 2.387 1.34 2.387 2.992"/></g><g opacity=".13"><path fill="#1b8bc8" d="M130.544 66.512c0 1.652-1.069 2.992-2.388 2.992-1.318 0-2.386-1.34-2.386-2.992s1.068-2.992 2.386-2.992c1.32 0 2.388 1.34 2.388 2.992"/></g><g opacity=".13"><path fill="#1b8bc8" d="M143.674 66.512c0 1.652-1.068 2.992-2.387 2.992-1.318 0-2.387-1.34-2.387-2.992s1.069-2.992 2.387-2.992c1.32 0 2.387 1.34 2.387 2.992"/></g><g opacity=".13"><path fill="#1b8bc8" d="M88.774 79.681c0 1.653-1.068 2.993-2.388 2.993-1.317 0-2.386-1.34-2.386-2.993 0-1.651 1.069-2.991 2.386-2.991 1.32 0 2.388 1.34 2.388 2.991"/></g><g opacity=".13"><path fill="#1b8bc8" d="M103.094 79.681c0 1.653-1.068 2.993-2.387 2.993-1.318 0-2.387-1.34-2.387-2.993 0-1.651 1.069-2.991 2.387-2.991 1.319 0 2.387 1.34 2.387 2.991"/></g><g opacity=".13"><path fill="#1b8bc8" d="M116.224 79.681c0 1.653-1.069 2.993-2.387 2.993-1.319 0-2.387-1.34-2.387-2.993 0-1.651 1.068-2.991 2.387-2.991 1.318 0 2.387 1.34 2.387 2.991"/></g><g opacity=".13"><path fill="#1b8bc8" d="M130.544 79.681c0 1.653-1.069 2.993-2.388 2.993-1.318 0-2.386-1.34-2.386-2.993 0-1.651 1.068-2.991 2.386-2.991 1.32 0 2.388 1.34 2.388 2.991"/></g><g opacity=".13"><path fill="#1b8bc8" d="M143.674 79.681c0 1.653-1.068 2.993-2.387 2.993-1.318 0-2.387-1.34-2.387-2.993 0-1.651 1.069-2.991 2.387-2.991 1.32 0 2.387 1.34 2.387 2.991"/></g><g opacity=".13"><path fill="#1b8bc8" d="M88.774 93.443a2.39 2.39 0 0 1-2.388 2.394A2.39 2.39 0 0 1 84 93.443a2.39 2.39 0 0 1 2.386-2.393 2.39 2.39 0 0 1 2.388 2.393"/></g><g opacity=".13"><path fill="#1b8bc8" d="M103.094 93.443a2.39 2.39 0 0 1-2.387 2.394 2.39 2.39 0 0 1-2.387-2.394 2.39 2.39 0 0 1 2.387-2.393 2.39 2.39 0 0 1 2.387 2.393"/></g><g opacity=".13"><path fill="#1b8bc8" d="M116.224 93.443a2.39 2.39 0 0 1-2.387 2.394 2.39 2.39 0 0 1-2.387-2.394 2.39 2.39 0 0 1 2.387-2.393 2.39 2.39 0 0 1 2.387 2.393"/></g><g opacity=".13"><path fill="#1b8bc8" d="M130.544 93.443a2.39 2.39 0 0 1-2.388 2.394 2.39 2.39 0 0 1-2.386-2.394 2.39 2.39 0 0 1 2.386-2.393 2.39 2.39 0 0 1 2.388 2.393"/></g><g opacity=".13"><path fill="#1b8bc8" d="M143.674 93.443a2.39 2.39 0 0 1-2.387 2.394 2.39 2.39 0 0 1-2.387-2.394 2.39 2.39 0 0 1 2.387-2.393 2.39 2.39 0 0 1 2.387 2.393"/></g><g opacity=".13"><path fill="#1b8bc8" d="M88.774 106.603a2.39 2.39 0 0 1-2.388 2.394A2.39 2.39 0 0 1 84 106.603a2.39 2.39 0 0 1 2.386-2.393 2.39 2.39 0 0 1 2.388 2.393"/></g><g opacity=".13"><path fill="#1b8bc8" d="M103.094 106.603a2.39 2.39 0 0 1-2.387 2.394 2.39 2.39 0 0 1-2.387-2.394 2.39 2.39 0 0 1 2.387-2.393 2.39 2.39 0 0 1 2.387 2.393"/></g><g opacity=".13"><path fill="#1b8bc8" d="M116.224 106.603a2.39 2.39 0 0 1-2.387 2.394 2.39 2.39 0 0 1-2.387-2.394 2.39 2.39 0 0 1 2.387-2.393 2.39 2.39 0 0 1 2.387 2.393"/></g><g opacity=".13"><path fill="#1b8bc8" d="M130.544 106.603a2.39 2.39 0 0 1-2.388 2.394 2.39 2.39 0 0 1-2.386-2.394 2.39 2.39 0 0 1 2.386-2.393 2.39 2.39 0 0 1 2.388 2.393"/></g><g opacity=".13"><path fill="#1b8bc8" d="M143.674 106.603a2.39 2.39 0 0 1-2.387 2.394 2.39 2.39 0 0 1-2.387-2.394 2.39 2.39 0 0 1 2.387-2.393 2.39 2.39 0 0 1 2.387 2.393"/></g><g opacity=".13"><path fill="#1b8bc8" d="M158.004 38.393a2.39 2.39 0 0 1-2.387 2.394 2.39 2.39 0 0 1-2.387-2.394A2.39 2.39 0 0 1 155.617 36a2.39 2.39 0 0 1 2.387 2.393"/></g><g opacity=".13"><path fill="#1b8bc8" d="M158.004 51.553a2.39 2.39 0 0 1-2.387 2.394 2.39 2.39 0 0 1-2.387-2.394 2.39 2.39 0 0 1 2.387-2.393 2.39 2.39 0 0 1 2.387 2.393"/></g><g opacity=".13"><path fill="#1b8bc8" d="M158.004 66.512c0 1.652-1.068 2.992-2.387 2.992-1.318 0-2.387-1.34-2.387-2.992s1.069-2.992 2.387-2.992c1.32 0 2.387 1.34 2.387 2.992"/></g><g opacity=".13"><path fill="#1b8bc8" d="M158.004 79.681c0 1.653-1.068 2.993-2.387 2.993-1.318 0-2.387-1.34-2.387-2.993 0-1.651 1.069-2.991 2.387-2.991 1.32 0 2.387 1.34 2.387 2.991"/></g><g opacity=".13"><path fill="#1b8bc8" d="M158.004 93.443a2.39 2.39 0 0 1-2.387 2.394 2.39 2.39 0 0 1-2.387-2.394 2.39 2.39 0 0 1 2.387-2.393 2.39 2.39 0 0 1 2.387 2.393"/></g><g opacity=".13"><path fill="#1b8bc8" d="M158.004 106.603a2.39 2.39 0 0 1-2.387 2.394 2.39 2.39 0 0 1-2.387-2.394 2.39 2.39 0 0 1 2.387-2.393 2.39 2.39 0 0 1 2.387 2.393"/></g></g><g opacity=".13"><g opacity=".13"><path fill="#1b8bc8" d="M88.774 118.393a2.39 2.39 0 0 1-2.388 2.394A2.39 2.39 0 0 1 84 118.393 2.39 2.39 0 0 1 86.386 116a2.39 2.39 0 0 1 2.388 2.393"/></g><g opacity=".13"><path fill="#1b8bc8" d="M103.094 118.393a2.39 2.39 0 0 1-2.387 2.394 2.39 2.39 0 0 1-2.387-2.394 2.39 2.39 0 0 1 2.387-2.393 2.39 2.39 0 0 1 2.387 2.393"/></g><g opacity=".13"><path fill="#1b8bc8" d="M116.224 118.393a2.39 2.39 0 0 1-2.387 2.394 2.39 2.39 0 0 1-2.387-2.394 2.39 2.39 0 0 1 2.387-2.393 2.39 2.39 0 0 1 2.387 2.393"/></g><g opacity=".13"><path fill="#1b8bc8" d="M130.544 118.393a2.39 2.39 0 0 1-2.388 2.394 2.39 2.39 0 0 1-2.386-2.394 2.39 2.39 0 0 1 2.386-2.393 2.39 2.39 0 0 1 2.388 2.393"/></g><g opacity=".13"><path fill="#1b8bc8" d="M143.674 118.393a2.39 2.39 0 0 1-2.387 2.394 2.39 2.39 0 0 1-2.387-2.394 2.39 2.39 0 0 1 2.387-2.393 2.39 2.39 0 0 1 2.387 2.393"/></g><g opacity=".13"><path fill="#1b8bc8" d="M88.774 131.553a2.39 2.39 0 0 1-2.388 2.394A2.39 2.39 0 0 1 84 131.553a2.39 2.39 0 0 1 2.386-2.393 2.39 2.39 0 0 1 2.388 2.393"/></g><g opacity=".13"><path fill="#1b8bc8" d="M103.094 131.553a2.39 2.39 0 0 1-2.387 2.394 2.39 2.39 0 0 1-2.387-2.394 2.39 2.39 0 0 1 2.387-2.393 2.39 2.39 0 0 1 2.387 2.393"/></g><g opacity=".13"><path fill="#1b8bc8" d="M116.224 131.553a2.39 2.39 0 0 1-2.387 2.394 2.39 2.39 0 0 1-2.387-2.394 2.39 2.39 0 0 1 2.387-2.393 2.39 2.39 0 0 1 2.387 2.393"/></g><g opacity=".13"><path fill="#1b8bc8" d="M130.544 131.553a2.39 2.39 0 0 1-2.388 2.394 2.39 2.39 0 0 1-2.386-2.394 2.39 2.39 0 0 1 2.386-2.393 2.39 2.39 0 0 1 2.388 2.393"/></g><g opacity=".13"><path fill="#1b8bc8" d="M143.674 131.553a2.39 2.39 0 0 1-2.387 2.394 2.39 2.39 0 0 1-2.387-2.394 2.39 2.39 0 0 1 2.387-2.393 2.39 2.39 0 0 1 2.387 2.393"/></g><g opacity=".13"><path fill="#1b8bc8" d="M88.774 146.512c0 1.652-1.068 2.992-2.388 2.992-1.317 0-2.386-1.34-2.386-2.992s1.069-2.992 2.386-2.992c1.32 0 2.388 1.34 2.388 2.992"/></g><g opacity=".13"><path fill="#1b8bc8" d="M103.094 146.512c0 1.652-1.068 2.992-2.387 2.992-1.318 0-2.387-1.34-2.387-2.992s1.069-2.992 2.387-2.992c1.319 0 2.387 1.34 2.387 2.992"/></g><g opacity=".13"><path fill="#1b8bc8" d="M116.224 146.512c0 1.652-1.069 2.992-2.387 2.992-1.319 0-2.387-1.34-2.387-2.992s1.068-2.992 2.387-2.992c1.318 0 2.387 1.34 2.387 2.992"/></g><g opacity=".13"><path fill="#1b8bc8" d="M130.544 146.512c0 1.652-1.069 2.992-2.388 2.992-1.318 0-2.386-1.34-2.386-2.992s1.068-2.992 2.386-2.992c1.32 0 2.388 1.34 2.388 2.992"/></g><g opacity=".13"><path fill="#1b8bc8" d="M143.674 146.512c0 1.652-1.068 2.992-2.387 2.992-1.318 0-2.387-1.34-2.387-2.992s1.069-2.992 2.387-2.992c1.32 0 2.387 1.34 2.387 2.992"/></g><g opacity=".13"><path fill="#1b8bc8" d="M88.774 159.681c0 1.653-1.068 2.993-2.388 2.993-1.317 0-2.386-1.34-2.386-2.993 0-1.651 1.069-2.991 2.386-2.991 1.32 0 2.388 1.34 2.388 2.991"/></g><g opacity=".13"><path fill="#1b8bc8" d="M103.094 159.681c0 1.653-1.068 2.993-2.387 2.993-1.318 0-2.387-1.34-2.387-2.993 0-1.651 1.069-2.991 2.387-2.991 1.319 0 2.387 1.34 2.387 2.991"/></g><g opacity=".13"><path fill="#1b8bc8" d="M116.224 159.681c0 1.653-1.069 2.993-2.387 2.993-1.319 0-2.387-1.34-2.387-2.993 0-1.651 1.068-2.991 2.387-2.991 1.318 0 2.387 1.34 2.387 2.991"/></g><g opacity=".13"><path fill="#1b8bc8" d="M130.544 159.681c0 1.653-1.069 2.993-2.388 2.993-1.318 0-2.386-1.34-2.386-2.993 0-1.651 1.068-2.991 2.386-2.991 1.32 0 2.388 1.34 2.388 2.991"/></g><g opacity=".13"><path fill="#1b8bc8" d="M143.674 159.681c0 1.653-1.068 2.993-2.387 2.993-1.318 0-2.387-1.34-2.387-2.993 0-1.651 1.069-2.991 2.387-2.991 1.32 0 2.387 1.34 2.387 2.991"/></g><g opacity=".13"><path fill="#1b8bc8" d="M88.774 173.443a2.39 2.39 0 0 1-2.388 2.394A2.39 2.39 0 0 1 84 173.443a2.39 2.39 0 0 1 2.386-2.393 2.39 2.39 0 0 1 2.388 2.393"/></g><g opacity=".13"><path fill="#1b8bc8" d="M103.094 173.443a2.39 2.39 0 0 1-2.387 2.394 2.39 2.39 0 0 1-2.387-2.394 2.39 2.39 0 0 1 2.387-2.393 2.39 2.39 0 0 1 2.387 2.393"/></g><g opacity=".13"><path fill="#1b8bc8" d="M116.224 173.443a2.39 2.39 0 0 1-2.387 2.394 2.39 2.39 0 0 1-2.387-2.394 2.39 2.39 0 0 1 2.387-2.393 2.39 2.39 0 0 1 2.387 2.393"/></g><g opacity=".13"><path fill="#1b8bc8" d="M130.544 173.443a2.39 2.39 0 0 1-2.388 2.394 2.39 2.39 0 0 1-2.386-2.394 2.39 2.39 0 0 1 2.386-2.393 2.39 2.39 0 0 1 2.388 2.393"/></g><g opacity=".13"><path fill="#1b8bc8" d="M143.674 173.443a2.39 2.39 0 0 1-2.387 2.394 2.39 2.39 0 0 1-2.387-2.394 2.39 2.39 0 0 1 2.387-2.393 2.39 2.39 0 0 1 2.387 2.393"/></g><g opacity=".13"><path fill="#1b8bc8" d="M88.774 186.603a2.39 2.39 0 0 1-2.388 2.394A2.39 2.39 0 0 1 84 186.603a2.39 2.39 0 0 1 2.386-2.393 2.39 2.39 0 0 1 2.388 2.393"/></g><g opacity=".13"><path fill="#1b8bc8" d="M103.094 186.603a2.39 2.39 0 0 1-2.387 2.394 2.39 2.39 0 0 1-2.387-2.394 2.39 2.39 0 0 1 2.387-2.393 2.39 2.39 0 0 1 2.387 2.393"/></g><g opacity=".13"><path fill="#1b8bc8" d="M116.224 186.603a2.39 2.39 0 0 1-2.387 2.394 2.39 2.39 0 0 1-2.387-2.394 2.39 2.39 0 0 1 2.387-2.393 2.39 2.39 0 0 1 2.387 2.393"/></g><g opacity=".13"><path fill="#1b8bc8" d="M130.544 186.603a2.39 2.39 0 0 1-2.388 2.394 2.39 2.39 0 0 1-2.386-2.394 2.39 2.39 0 0 1 2.386-2.393 2.39 2.39 0 0 1 2.388 2.393"/></g><g opacity=".13"><path fill="#1b8bc8" d="M143.674 186.603a2.39 2.39 0 0 1-2.387 2.394 2.39 2.39 0 0 1-2.387-2.394 2.39 2.39 0 0 1 2.387-2.393 2.39 2.39 0 0 1 2.387 2.393"/></g><g opacity=".13"><path fill="#1b8bc8" d="M158.004 118.393a2.39 2.39 0 0 1-2.387 2.394 2.39 2.39 0 0 1-2.387-2.394 2.39 2.39 0 0 1 2.387-2.393 2.39 2.39 0 0 1 2.387 2.393"/></g><g opacity=".13"><path fill="#1b8bc8" d="M158.004 131.553a2.39 2.39 0 0 1-2.387 2.394 2.39 2.39 0 0 1-2.387-2.394 2.39 2.39 0 0 1 2.387-2.393 2.39 2.39 0 0 1 2.387 2.393"/></g><g opacity=".13"><path fill="#1b8bc8" d="M158.004 146.512c0 1.652-1.068 2.992-2.387 2.992-1.318 0-2.387-1.34-2.387-2.992s1.069-2.992 2.387-2.992c1.32 0 2.387 1.34 2.387 2.992"/></g><g opacity=".13"><path fill="#1b8bc8" d="M158.004 159.681c0 1.653-1.068 2.993-2.387 2.993-1.318 0-2.387-1.34-2.387-2.993 0-1.651 1.069-2.991 2.387-2.991 1.32 0 2.387 1.34 2.387 2.991"/></g><g opacity=".13"><path fill="#1b8bc8" d="M158.004 173.443a2.39 2.39 0 0 1-2.387 2.394 2.39 2.39 0 0 1-2.387-2.394 2.39 2.39 0 0 1 2.387-2.393 2.39 2.39 0 0 1 2.387 2.393"/></g><g opacity=".13"><path fill="#1b8bc8" d="M158.004 186.603a2.39 2.39 0 0 1-2.387 2.394 2.39 2.39 0 0 1-2.387-2.394 2.39 2.39 0 0 1 2.387-2.393 2.39 2.39 0 0 1 2.387 2.393"/></g></g></g></g></g></svg>