<svg xmlns="http://www.w3.org/2000/svg" width="136" height="35" viewBox="0 0 136 35"><g><g><g><path fill="#97a4b0" d="M105.76 16.318c-.431 2.584-2.372 2.584-4.313 2.584h-1.294l.863-4.954c0-.215.215-.43.647-.43h.431c1.294 0 2.588 0 3.235.861.431.216.431.862.431 1.939m-.865-7.108h-7.323c-.43 0-.861.43-1.077.862L93.48 29.025c0 .431.215.647.646.647h3.877c.43 0 .646-.216.646-.647l.862-5.384c0-.431.43-.862 1.077-.862h2.369c4.954 0 7.754-2.369 8.4-7.107.43-1.939 0-3.662-.862-4.739-1.292-1.077-3.23-1.723-5.6-1.723"/></g><g><g><path fill="#97a4b0" d="M53 16.318c-.432 2.584-2.377 2.584-4.321 2.584h-1.08l.864-4.954c0-.215.216-.43.648-.43h.432c1.296 0 2.593 0 3.24.861.217.216.433.862.217 1.939m-.875-7.108h-7.323c-.43 0-.861.43-1.077.862L40.71 29.025c0 .431.215.647.646.647h3.446c.431 0 .862-.431 1.077-.862l.862-5.17c0-.43.43-.86 1.077-.86h2.369c4.954 0 7.754-2.37 8.4-7.108.43-1.939 0-3.662-.862-4.739-1.292-1.077-3.015-1.723-5.6-1.723"/></g><g><path fill="#97a4b0" d="M69.356 22.993c-.431 1.94-1.939 3.449-4.093 3.449-1.077 0-1.938-.431-2.369-.863-.43-.646-.646-1.508-.646-2.586.215-1.94 1.938-3.449 3.877-3.449 1.077 0 1.723.431 2.37.862.645.647.86 1.725.86 2.587M74.31 16.1h-3.447c-.215 0-.646.215-.646.43l-.215 1.077-.216-.43c-.861-1.077-2.369-1.508-4.092-1.508-3.877 0-7.323 3.015-7.97 7.108-.43 2.154.216 4.092 1.293 5.384 1.077 1.293 2.585 1.723 4.523 1.723 3.231 0 4.954-1.938 4.954-1.938l-.215 1.077c0 .43.215.646.646.646h3.23c.431 0 .862-.43 1.078-.862l1.938-12.061c-.215-.215-.646-.646-.861-.646"/></g></g><g><path fill="#97a4b0" d="M121.896 22.993c-.43 1.94-1.936 3.449-4.087 3.449-1.075 0-1.936-.431-2.366-.863-.43-.646-.645-1.508-.645-2.586.215-1.94 1.936-3.449 3.872-3.449 1.075 0 1.72.431 2.365.862.86.647 1.076 1.725.86 2.587m4.965-6.892h-3.447c-.215 0-.646.215-.646.43l-.215 1.077-.216-.43c-.861-1.077-2.369-1.508-4.092-1.508-3.877 0-7.323 3.015-7.97 7.108-.43 2.154.216 4.092 1.293 5.384 1.077 1.293 2.585 1.723 4.523 1.723 3.231 0 4.954-1.938 4.954-1.938l-.215 1.077c0 .43.215.646.646.646h3.23c.431 0 .862-.43 1.078-.862l1.938-12.061c-.215-.215-.43-.646-.861-.646"/></g><g><path fill="#97a4b0" d="M93.045 16.1h-3.662c-.43 0-.646.215-.861.43l-4.739 7.324-2.154-6.892c-.215-.431-.43-.647-1.077-.647h-3.446c-.43 0-.646.431-.646.862l3.877 11.415-3.662 5.17c-.215.43 0 1.076.431 1.076h3.446c.431 0 .646-.215.862-.43L93.26 17.392c.646-.646.215-1.292-.215-1.292"/></g><g><path fill="#97a4b0" d="M130.955 9.855L127.94 29.24c0 .43.215.646.646.646h3.016c.43 0 .861-.43 1.076-.862l3.016-18.953c0-.431-.216-.646-.646-.646h-3.446c-.216-.216-.431 0-.647.43"/></g><g><path fill="#97a4b0" d="M24.77 2.745C23.261 1.022 20.461.16 16.584.16H5.815c-.646 0-1.292.646-1.507 1.292L0 29.668c0 .646.43 1.077.862 1.077h6.676L9.262 20.19v.43c.215-.646.861-1.292 1.507-1.292H14c6.246 0 10.985-2.584 12.492-9.692V8.99c-.215 0-.215 0 0 0 .216-2.8-.215-4.523-1.723-6.246"/></g><g><path fill="#909da6" d="M26.275 8.99v.646c-1.508 7.323-6.247 9.692-12.493 9.692h-3.23c-.647 0-1.293.647-1.508 1.293L6.89 33.759c0 .431.215.862.862.862h5.6c.646 0 1.292-.431 1.292-1.077v-.216l1.077-6.676v-.431c0-.646.646-1.077 1.292-1.077h.862c5.384 0 9.692-2.154 10.769-8.616.43-2.584.215-4.953-1.077-6.461-.215-.43-.646-.862-1.292-1.077"/></g><g><path fill="#97a4b0" d="M24.768 8.346c-.216 0-.431-.215-.646-.215-.216 0-.431 0-.647-.216-.861-.215-1.723-.215-2.8-.215h-8.4c-.215 0-.43 0-.646.215-.43.216-.646.647-.646 1.077l-1.723 11.2v.431c.215-.646.862-1.292 1.508-1.292h3.23c6.247 0 10.985-2.585 12.493-9.693 0-.215 0-.43.215-.646-.43-.215-.646-.43-1.077-.43-.646-.216-.646-.216-.861-.216"/></g></g></g></svg>