<svg xmlns="http://www.w3.org/2000/svg" width="34" height="36" viewBox="0 0 34 36"><g><g><g><path d="M32.588 33.243c0 .762-.623 1.382-1.39 1.382H10.442c-.766 0-1.39-.62-1.39-1.384v-6.233h11.77a2.078 2.078 0 0 0 2.075-2.076V14.541a2.078 2.078 0 0 0-2.075-2.076H9.052V2.774c0-.766.624-1.39 1.39-1.39h12.455v9.003c0 .383.31.693.692.693h8.999zM2.126 25.615a.691.691 0 0 1-.69-.69V14.537c0-.381.309-.69.69-.69h18.691c.381 0 .69.309.69.69v10.388c0 .38-.31.69-.69.69zM24.288 1.87l7.521 7.823h-7.521zm9.492 7.873L24.608.212A.693.693 0 0 0 24.11 0H10.44a2.777 2.777 0 0 0-2.774 2.773v9.689h-5.54c-1.144 0-2.075.93-2.075 2.075v10.388C.05 26.069.981 27 2.126 27h5.54v6.232A2.775 2.775 0 0 0 10.44 36h20.759a2.774 2.774 0 0 0 2.774-2.767v-23.01a.693.693 0 0 0-.193-.48z"/></g><g><path d="M7.302 19.2a.787.787 0 0 1-.375.29c-.16.063-.476.094-.95.094h-.656v-1.678h.58c.433 0 .72.013.864.04a.832.832 0 0 1 .482.262.76.76 0 0 1 .191.533.791.791 0 0 1-.136.46zm1.029-1.629a1.56 1.56 0 0 0-.856-.582c-.222-.06-.698-.089-1.428-.089H4.12v5.947h1.2v-2.243h.784c.543 0 .958-.029 1.245-.086.211-.046.419-.14.623-.282a1.63 1.63 0 0 0 .505-.586c.132-.248.199-.555.199-.92 0-.474-.115-.86-.345-1.159z"/></g><g><path d="M13.285 20.959c-.082.266-.187.456-.315.572-.129.116-.29.199-.486.247-.149.038-.392.057-.727.057h-.899v-3.929h.54c.491 0 .82.019.988.057.225.048.411.141.557.279.147.138.26.329.342.574.081.246.122.598.122 1.057 0 .458-.041.82-.122 1.086zm1.166-2.434c-.13-.38-.32-.701-.568-.964a1.989 1.989 0 0 0-.897-.547c-.26-.076-.637-.114-1.131-.114H9.66v5.947h2.26c.443 0 .797-.042 1.062-.126.355-.114.636-.272.844-.475.276-.267.488-.617.637-1.05.122-.354.182-.776.182-1.266 0-.557-.064-1.025-.194-1.405z"/></g><g><path d="M19.747 17.906V16.9H15.67v5.947h1.2V20.32h2.483v-1.006h-2.482v-1.408z"/></g></g></g></svg>