<svg xmlns="http://www.w3.org/2000/svg" width="217" height="249" viewBox="0 0 217 249"><g><g><g><path fill="#facc5f" d="M108.5 244c7.456 0 13.5-6.044 13.5-13.5s-6.044-13.5-13.5-13.5S95 223.044 95 230.5s6.044 13.5 13.5 13.5z"/></g><g><path fill="#facc5f" d="M199.5 244c7.456 0 13.5-6.044 13.5-13.5s-6.044-13.5-13.5-13.5-13.5 6.044-13.5 13.5 6.044 13.5 13.5 13.5z"/></g><g><path fill="#facc5f" d="M18.5 244c7.456 0 13.5-6.044 13.5-13.5S25.956 217 18.5 217 5 223.044 5 230.5 11.044 244 18.5 244z"/></g><g><path fill="#fff" d="M199.808 164.478c0 3.458-2.793 6.255-6.297 6.255H23.49a6.246 6.246 0 0 1-6.246-6.255V129.34a6.246 6.246 0 0 1 6.246-6.254H193.51c3.453 0 6.297 2.796 6.297 6.254zm0-92.05v35.145c0 3.458-2.793 6.256-6.297 6.256H23.49a6.247 6.247 0 0 1-6.246-6.256V72.427a6.247 6.247 0 0 1 6.246-6.256H193.51c3.453 0 6.297 2.798 6.297 6.256zM17.192 15.512a6.247 6.247 0 0 1 6.246-6.256H193.46c3.454 0 6.297 2.797 6.297 6.256v35.145c0 3.459-2.793 6.307-6.297 6.307H23.49c-3.453 0-6.246-2.797-6.246-6.307V15.513zm191.808 0C209 6.968 202.043 0 193.511 0H23.49C14.957 0 8 6.968 8 15.513v35.145c0 4.222 1.727 8.087 4.469 10.885C9.727 64.34 8 68.206 8 72.427v35.146c0 4.221 1.727 8.087 4.469 10.884C9.727 121.255 8 125.12 8 129.342v35.145C8 173.032 14.957 180 23.489 180H193.51c8.532 0 15.489-6.968 15.489-15.513v-35.145c0-4.222-1.727-8.087-4.469-10.885 2.742-2.797 4.469-6.663 4.469-10.884V72.427c0-4.221-1.727-8.087-4.469-10.884C207.273 58.745 209 54.88 209 50.658z"/></g><g><path fill="#facc5f" d="M106.647 38h57.706c2.553 0 4.647-2.027 4.647-4.5s-2.094-4.5-4.647-4.5h-57.706c-2.553 0-4.647 2.027-4.647 4.5s2.094 4.5 4.647 4.5z"/></g><g><path fill="#facc5f" d="M59.5 39a5.5 5.5 0 1 0 0-11 5.5 5.5 0 0 0 0 11z"/></g><g><path fill="#facc5f" d="M106.647 94h57.706c2.553 0 4.647-2.027 4.647-4.5s-2.094-4.5-4.647-4.5h-57.706c-2.553 0-4.647 2.027-4.647 4.5.051 2.522 2.094 4.5 4.647 4.5z"/></g><g><path fill="#facc5f" d="M164.353 142h-57.706c-2.553 0-4.647 2.027-4.647 4.5s2.094 4.5 4.647 4.5h57.706c2.553 0 4.647-2.027 4.647-4.5s-2.094-4.5-4.647-4.5z"/></g><g><path fill="#facc5f" d="M59.5 95a5.5 5.5 0 1 0 0-11 5.5 5.5 0 0 0 0 11z"/></g><g><path fill="#facc5f" d="M59.5 152a5.5 5.5 0 1 0 0-11 5.5 5.5 0 0 0 0 11z"/></g><g><path fill="#fff" d="M198.74 239.74c-4.972 0-9.03-4.07-9.03-9.056 0-4.986 4.058-9.057 9.03-9.057 4.97 0 9.028 4.07 9.028 9.057 0 4.986-4.058 9.056-9.029 9.056zm-90.19 0c-4.97 0-9.028-4.07-9.028-9.056 0-4.986 4.058-9.057 9.029-9.057 4.97 0 9.029 4.07 9.029 9.057 0 4.986-4.058 9.056-9.03 9.056zm-90.29 0c-4.97 0-9.028-4.07-9.028-9.056 0-4.986 4.058-9.057 9.029-9.057 4.97 0 9.029 4.07 9.029 9.057 0 4.986-4.109 9.056-9.03 9.056zm180.48-27.271c-8.421 0-15.523 5.8-17.602 13.636h-54.986c-1.674-6.36-6.645-11.346-12.985-13.025v-14.45c0-2.544-2.08-4.63-4.616-4.63-2.537 0-4.616 2.086-4.616 4.63v14.45c-6.34 1.679-11.312 6.665-12.986 13.025H35.812c-2.03-7.836-9.13-13.636-17.602-13.636-10.043 0-18.21 8.192-18.21 18.266C0 240.809 8.167 249 18.21 249c8.42 0 15.522-5.8 17.602-13.636h55.137C92.98 243.2 100.08 249 108.551 249c8.47 0 15.521-5.8 17.601-13.636h55.036c2.03 7.836 9.13 13.636 17.602 13.636 10.043 0 18.21-8.191 18.21-18.265 0-10.075-8.217-18.266-18.26-18.266z"/></g></g></g></svg>