<svg xmlns="http://www.w3.org/2000/svg" width="103" height="33" viewBox="0 0 103 33"><g><g><g><g><path fill="#97a4b0" d="M1.163 20.79c.83.495 2.492 1.155 3.987.99 1.329 0 2.16-.66 2.16-1.65 0-.825-.499-1.485-1.994-2.31-1.827-.99-3.156-2.475-3.156-4.455C2.16 9.9 5.15 7.59 9.303 7.59c1.828 0 3.323.33 4.153.825l-1.162 3.465c-.665-.33-1.828-.66-2.99-.66-1.33 0-2.327.66-2.327 1.65 0 .825.665 1.32 1.828 1.98 1.827 1.155 3.489 2.64 3.489 4.62 0 3.795-3.157 6.105-7.476 5.94-1.994 0-3.821-.495-4.818-1.155z"/></g><g><path fill="#97a4b0" d="M13.29 24.75L18.108 0h4.817l-1.827 9.9v.165c1.33-1.485 2.99-2.475 5.15-2.475 2.492 0 3.987 1.65 3.987 4.455 0 .825-.166 1.98-.332 2.97l-1.828 9.735h-4.817l1.827-9.57c.166-.66.166-1.32.166-1.98 0-.99-.498-1.815-1.495-1.815-1.495 0-3.156 1.815-3.82 4.95l-1.662 8.25H13.29z"/></g><g><path fill="#97a4b0" d="M40.535 11.22c1.827 0 2.326 1.485 2.326 2.97 0 2.97-1.33 7.59-3.987 7.59-1.662 0-2.326-1.32-2.326-3.135 0-2.805 1.495-7.26 3.987-7.425zm.997-3.63c-5.981 0-9.802 5.115-9.802 11.055 0 3.795 2.326 6.765 6.645 6.765 5.815 0 9.636-5.115 9.636-11.055 0-3.465-2.16-6.765-6.48-6.765z"/></g><g><path fill="#97a4b0" d="M54.487 16.5c.497-2.97 2.156-4.95 3.815-4.95 1.493 0 1.99 1.32 1.99 2.64 0 3.135-1.99 7.59-4.644 7.59-.83 0-1.493-.165-1.99-.66zm-2.823 14.85l1.329-6.6h.166c.498 0 1.661.66 2.492.495 5.648 0 9.47-5.775 9.47-11.715 0-3.135-1.496-6.27-4.985-6.27-1.993 0-3.82.99-5.15 2.64l.333-1.65h-4.32c-.166 1.65-.664 3.96-.996 5.94L46.68 31.35z"/></g><g><path fill="#97a4b0" d="M71.929 6.613c1.492 0 2.818-1.322 2.984-3.14 0-1.321-.995-2.643-2.487-2.643-1.658 0-2.819 1.322-2.819 2.974 0 1.487.995 2.809 2.322 2.809zm-1.325 18.142l3.322-16.503h-4.983L65.62 24.755z"/></g><g><path fill="#97a4b0" d="M74.76 24.75l2.658-13.2h-2.326l.665-3.3h2.326l.166-.99c.332-1.98 1.163-4.125 2.824-5.61C82.402.495 84.063 0 85.89 0c1.163 0 2.16.165 2.658.33l-.997 3.795c-.498-.165-.997-.33-1.495-.33-1.662 0-2.658 1.65-2.824 3.3l-.499 1.155h3.323l-.665 3.3H82.07l-2.658 13.2z"/></g><g><path fill="#97a4b0" d="M92.198 8.25l.83 7.59c.167 1.65.333 2.31.5 3.96.331-1.65.664-2.145 1.494-3.96l2.99-7.59h4.984l-5.98 12.54c-2.16 4.29-4.153 7.425-6.48 9.57-1.66 1.65-3.82 2.31-4.817 2.64l-1.329-4.125c.83-.33 1.827-.66 2.824-1.32 1.163-.825 2.16-1.815 2.658-2.97.166-.165.166-.33.166-.66L87.048 8.25h5.15z"/></g></g></g></g></svg>