<svg xmlns="http://www.w3.org/2000/svg" width="25" height="24" viewBox="0 0 25 24"><g><g><path fill="#51545e" d="M17.562 9.192c.006.118.009.237.009.356 0 3.628-2.758 7.81-7.805 7.81a7.753 7.753 0 0 1-4.204-1.233 5.502 5.502 0 0 0 4.06-1.137 2.746 2.746 0 0 1-2.561-1.906 2.762 2.762 0 0 0 1.238-.046 2.745 2.745 0 0 1-2.2-2.692v-.035c.37.205.793.33 1.242.343a2.744 2.744 0 0 1-1.22-2.284c0-.504.136-.976.372-1.381a7.786 7.786 0 0 0 5.653 2.87 2.744 2.744 0 0 1 4.674-2.505 5.472 5.472 0 0 0 1.742-.667 2.757 2.757 0 0 1-1.208 1.52 5.449 5.449 0 0 0 1.576-.433 5.52 5.52 0 0 1-1.368 1.42zM12.246 0C5.676 0 .33 5.346.33 11.916s5.346 11.917 11.916 11.917 11.917-5.346 11.917-11.917C24.163 5.346 18.818 0 12.246 0z"/></g></g></svg>