<svg xmlns="http://www.w3.org/2000/svg" width="24" height="24" viewBox="0 0 24 24"><g><g><g><g><path fill="#c42126" d="M.05 13.11h23.776v.1H.05z"/></g><g><path fill="#c42126" d="M1.29 6.59h21.298v.1H1.29z"/></g><g><path fill="#c42126" d="M.45 8.76h22.992v.1H.45z"/></g><g><path fill="#c42126" d="M5.13 21.82H18.75 5.13z"/></g><g><path fill="#c42126" d="M11.938.069a6.19 6.19 0 0 0-.698.042h1.397a6.196 6.196 0 0 0-.699-.042z"/></g><g><path fill="#c42126" d="M.05 10.94h23.784v.1H.05z"/></g></g><g><path fill="#e7e7e7" d="M15.466 4.412h5.702a12.002 12.002 0 0 0-2.336-2.172H14.55c.354.623.659 1.359.916 2.172z"/></g><g><path fill="#dc3027" d="M14.553 2.243h4.281A11.875 11.875 0 0 0 12.638.07h-.368c1.083.136 1.58.938 2.283 2.173z"/></g><g><path fill="#e7e7e7" d="M23.437 8.762a11.863 11.863 0 0 0-.847-2.172h-6.56c.133.697.238 1.426.315 2.172z"/></g><g><path fill="#dc3027" d="M15.661 6.593h6.93a11.948 11.948 0 0 0-1.418-2.173H15.12c.213.676.395 1.404.541 2.173z"/></g><g><path fill="#e7e7e7" d="M16.6 13.112h7.232c.034-.367.054-.74.054-1.116 0-.356-.02-.708-.05-1.056h-7.234c.023.723.023 1.45-.002 2.172z"/></g><g><path fill="#dc3027" d="M23.832 10.932c-.065-.746-.2-1.472-.396-2.172H16.04c.074.711.123 1.44.147 2.172z"/></g><g><path fill="#e7e7e7" d="M15.91 17.453h6.654c.354-.688.644-1.415.86-2.173h-7.192c-.08.747-.187 1.476-.322 2.173z"/></g><g><path fill="#dc3027" d="M23.42 15.282c.2-.7.34-1.426.41-2.172h-7.458a30.537 30.537 0 0 1-.152 2.172h7.2z"/></g><g><path fill="#e7e7e7" d="M18.755 21.802a12.011 12.011 0 0 0 2.371-2.172h-5.602c-.262.817-.573 1.551-.934 2.172h4.165z"/></g><g><g><path fill="#dc3027" d="M15.31 19.623h5.814a11.96 11.96 0 0 0 1.436-2.173h-6.702a18.906 18.906 0 0 1-.548 2.173z"/></g><g><path fill="#dc3027" d="M11.54 23.953l-.1-.006"/></g><g><path fill="#dc3027" d="M11.94 23.934c2.532 0 4.877-.79 6.81-2.134h-4.322c-.768 1.322-1.274 2.134-2.488 2.134z"/></g></g><g><path fill="#c42126" d="M11.943 23.958c-.145 0-.29-.006-.433-.016"/></g><g><path fill="#f3f4f5" d="M14.95 2.24H5.047A12.003 12.003 0 0 0 2.71 4.412h13.156c-.257-.813-.562-1.549-.916-2.172z"/></g><g><path fill="#e73625" d="M5.05 2.243h9.903C14.251 1.008 13.36.206 12.275.07h-1.029A11.874 11.874 0 0 0 5.05 2.243z"/></g><g><path fill="#f3f4f5" d="M.45 8.762h16.277a26.042 26.042 0 0 0-.315-2.172H1.297A11.86 11.86 0 0 0 .45 8.762z"/></g><g><path fill="#e73625" d="M2.707 4.42A11.956 11.956 0 0 0 1.29 6.593h15.115a19.146 19.146 0 0 0-.542-2.173z"/></g><g><path fill="#f3f4f5" d="M0 11.996c0 .376.02.749.054 1.116h16.814c.025-.722.026-1.45.002-2.172H.05c-.031.348-.05.7-.05 1.056z"/></g><g><path fill="#e73625" d="M.05 10.932h16.82a30.679 30.679 0 0 0-.147-2.172H.446c-.196.7-.33 1.426-.396 2.172z"/></g><g><path fill="#f3f4f5" d="M16.714 15.28H.46c.217.758.506 1.485.86 2.173h15.072c.136-.697.243-1.425.322-2.173z"/></g><g><path fill="#e73625" d="M.459 15.282h16.254c.076-.71.126-1.439.152-2.172H.05c.07.746.209 1.472.409 2.172z"/></g><g><path fill="#f3f4f5" d="M5.131 21.802h9.782c.36-.621.672-1.355.933-2.172H2.76a12.005 12.005 0 0 0 2.371 2.172z"/></g><g><g><path fill="#e73625" d="M1.32 17.45c.4.777.882 1.506 1.437 2.173h13.086c.217-.675.4-1.404.548-2.173z"/></g><g><path fill="#e73625" d="M11.434 23.923l.072.002c.144.005.288.009.433.009 1.214 0 2.205-.812 2.972-2.134H5.13a11.879 11.879 0 0 0 6.304 2.123z"/></g></g><g><path fill="#283991" d="M11.694.06C5.574.184.587 4.91.05 10.92h11.644V.06z"/></g><g><g><path fill="#efefef" d="M2.391 6.82l.182.56h.59l-.477.347.182.56-.477-.346-.476.346.182-.56-.477-.347h.59z"/></g><g><path fill="#efefef" d="M2.391 8.8l.182.56h.59l-.477.347.182.56-.477-.346-.476.346.182-.56-.477-.346h.59z"/></g><g><path fill="#efefef" d="M4.372 3.85l.182.56h.589l-.477.347.182.56-.476-.346-.477.346.182-.56L3.6 4.41h.59z"/></g><g><path fill="#efefef" d="M4.372 5.83l.182.56h.589l-.477.347.182.56-.476-.346-.477.346.182-.56L3.6 6.39h.59z"/></g><g><path fill="#efefef" d="M4.372 7.81l.182.56h.589l-.477.347.182.56-.476-.346-.477.346.182-.56L3.6 8.37h.59z"/></g><g><path fill="#efefef" d="M.885 9.278l-.182-.56.476-.347H.59L.577 8.33c-.065.2-.123.403-.177.607l.008-.006z"/></g><g><path fill="#efefef" d="M1.911 6.307l.477-.346.477.346-.183-.56.477-.347h-.59l-.181-.56-.182.56h-.217l-.119.185.223.162z"/></g><g><path fill="#efefef" d="M4.367 2.99l.477.347-.182-.56.476-.347h-.34a11.86 11.86 0 0 0-.836.686l-.072.22z"/></g><g><path fill="#efefef" d="M5.87 2.342l.477-.346.476.346-.182-.56.477-.347h-.59l-.024-.075c-.2.102-.398.208-.59.321l.138.1z"/></g><g><path fill="#efefef" d="M6.352 2.86l.182.56h.589l-.477.347.182.56-.476-.346-.477.346.182-.56-.477-.347h.59z"/></g><g><path fill="#efefef" d="M6.352 4.84l.182.56h.589l-.477.347.182.56-.476-.346-.477.346.182-.56L5.58 5.4h.59z"/></g><g><path fill="#efefef" d="M6.352 6.82l.182.56h.589l-.477.347.182.56-.476-.346-.477.346.182-.56-.477-.347h.59z"/></g><g><path fill="#efefef" d="M6.352 8.8l.182.56h.589l-.477.347.182.56-.476-.346-.477.346.182-.56-.477-.346h.59z"/></g><g><path fill="#efefef" d="M8.332 1.87l.182.56h.589l-.477.347.182.56-.476-.346-.477.346.182-.56-.477-.347h.59z"/></g><g><path fill="#efefef" d="M8.332 3.85l.182.56h.589l-.477.347.182.56-.476-.346-.477.346.182-.56-.477-.347h.59z"/></g><g><path fill="#efefef" d="M8.332 5.83l.182.56h.589l-.477.347.182.56-.476-.346-.477.346.182-.56-.477-.347h.59z"/></g><g><path fill="#efefef" d="M8.332 7.81l.182.56h.589l-.477.347.182.56-.476-.346-.477.346.182-.56-.477-.346h.59z"/></g><g><path fill="#efefef" d="M10.312.88l.182.56h.589l-.477.347.182.56-.476-.346-.477.346.182-.56-.477-.347h.59z"/></g><g><path fill="#efefef" d="M10.312 2.86l.182.56h.589l-.477.347.182.56-.476-.346-.477.346.182-.56-.477-.347h.59z"/></g><g><path fill="#efefef" d="M10.312 4.84l.182.56h.589l-.477.347.182.56-.476-.346-.477.346.182-.56L9.54 5.4h.59z"/></g><g><path fill="#efefef" d="M10.312 6.82l.182.56h.589l-.477.347.182.56-.476-.346-.477.346.182-.56-.477-.347h.59z"/></g><g><path fill="#efefef" d="M10.312 8.8l.182.56h.589l-.477.347.182.56-.476-.346-.477.346.182-.56-.477-.346h.59z"/></g></g></g></g></svg>