<svg xmlns="http://www.w3.org/2000/svg" width="105" height="33" viewBox="0 0 105 33"><g><g><g><path fill="#97a4b0" d="M41.898.75L36.58 31.957h8.505L50.407.75z"/></g><g><path fill="#97a4b0" d="M29.45.787l-8.33 21.282-.888-3.214C18.589 14.983 13.925 9.423 8.45 5.918l7.617 26.025 9-.015L38.46.78z"/></g><g><path fill="#97a4b0" d="M17.001 3.015c-.494-1.9-1.927-2.467-3.705-2.535H.109L0 1.101c10.262 2.49 17.052 8.488 19.87 15.7z"/></g><g><path fill="#97a4b0" d="M67.647 6.729c2.783-.044 4.8.564 6.366 1.194l.768.361 1.15-6.764C74.248.888 71.608.21 68.313.21c-8.404 0-14.328 4.233-14.374 10.299-.054 4.482 4.22 6.984 7.449 8.479 3.314 1.53 4.425 2.504 4.41 3.871-.026 2.09-2.643 3.048-5.086 3.048-3.406 0-5.215-.47-8.009-1.634l-1.095-.5-1.197 6.985c1.99.873 5.663 1.624 9.476 1.663 8.94 0 14.75-4.183 14.812-10.664.037-3.546-2.231-6.252-7.147-8.472-2.975-1.448-4.795-2.41-4.777-3.872 0-1.297 1.544-2.684 4.873-2.684z"/></g><g><path fill="#97a4b0" d="M87.267 20.894c.699-1.791 3.383-8.721 3.383-8.721-.046.085.693-1.805 1.132-2.98l.572 2.69 1.968 9.011zM97.756.78h-6.572c-2.04 0-3.559.556-4.456 2.59L74.1 31.97h8.932s1.456-3.846 1.787-4.688c.978 0 9.655.013 10.891.013a626.09 626.09 0 0 1 1.037 4.674h7.89z"/></g></g></g></svg>